<svg width="210" height="67" viewBox="0 0 210 67" fill="none" xmlns="http://www.w3.org/2000/svg">
<mask id="path-1-outside-1_2201_99" maskUnits="userSpaceOnUse" x="46.5962" y="0" width="128" height="55" fill="black">
<rect fill="white" x="46.5962" width="128" height="55"/>
<path d="M52.0962 26V11H55.0962V8H58.0962V5H67.0962V8H70.0962V11H73.0962V26H67.0962V20H58.0962V26H52.0962ZM58.0962 17H67.0962V11H64.0962V8H61.0962V11H58.0962V17ZM76.0962 26V5H91.0962V8H94.0962V11H97.0962V20H94.0962V23H91.0962V26H76.0962ZM82.0962 23H88.0962V20H91.0962V11H88.0962V8H82.0962V23ZM100.096 26V5H106.096V8H109.096V11H112.096V8H115.096V5H121.096V26H115.096V14H112.096V20H109.096V14H106.096V26H100.096ZM127.096 26V23H133.096V8H127.096V5H145.096V8H139.096V23H145.096V26H127.096ZM148.096 26V5H154.096V8H157.096V11H160.096V14H163.096V5H169.096V26H163.096V20H160.096V17H157.096V14H154.096V26H148.096ZM67.0962 50V47H64.0962V32H67.0962V29H82.0962V32H85.0962V47H82.0962V50H67.0962ZM70.0962 47H79.0962V32H70.0962V47ZM88.0962 50V29H94.0962V32H97.0962V35H100.096V38H103.096V29H109.096V50H103.096V44H100.096V41H97.0962V38H94.0962V50H88.0962ZM115.096 50V29H121.096V47H133.096V50H115.096ZM145.096 50V41H142.096V38H139.096V29H145.096V38H151.096V29H157.096V38H154.096V41H151.096V50H145.096Z"/>
</mask>
<path d="M52.0962 26V11H55.0962V8H58.0962V5H67.0962V8H70.0962V11H73.0962V26H67.0962V20H58.0962V26H52.0962ZM58.0962 17H67.0962V11H64.0962V8H61.0962V11H58.0962V17ZM76.0962 26V5H91.0962V8H94.0962V11H97.0962V20H94.0962V23H91.0962V26H76.0962ZM82.0962 23H88.0962V20H91.0962V11H88.0962V8H82.0962V23ZM100.096 26V5H106.096V8H109.096V11H112.096V8H115.096V5H121.096V26H115.096V14H112.096V20H109.096V14H106.096V26H100.096ZM127.096 26V23H133.096V8H127.096V5H145.096V8H139.096V23H145.096V26H127.096ZM148.096 26V5H154.096V8H157.096V11H160.096V14H163.096V5H169.096V26H163.096V20H160.096V17H157.096V14H154.096V26H148.096ZM67.0962 50V47H64.0962V32H67.0962V29H82.0962V32H85.0962V47H82.0962V50H67.0962ZM70.0962 47H79.0962V32H70.0962V47ZM88.0962 50V29H94.0962V32H97.0962V35H100.096V38H103.096V29H109.096V50H103.096V44H100.096V41H97.0962V38H94.0962V50H88.0962ZM115.096 50V29H121.096V47H133.096V50H115.096ZM145.096 50V41H142.096V38H139.096V29H145.096V38H151.096V29H157.096V38H154.096V41H151.096V50H145.096Z" fill="#FF8548"/>
<path d="M52.0962 26H47.0962V31H52.0962V26ZM52.0962 11V6H47.0962V11H52.0962ZM55.0962 11V16H60.0962V11H55.0962ZM55.0962 8V3H50.0962V8H55.0962ZM58.0962 8V13H63.0962V8H58.0962ZM58.0962 5V0H53.0962V5H58.0962ZM67.0962 5H72.0962V0H67.0962V5ZM67.0962 8H62.0962V13H67.0962V8ZM70.0962 8H75.0962V3H70.0962V8ZM70.0962 11H65.0962V16H70.0962V11ZM73.0962 11H78.0962V6H73.0962V11ZM73.0962 26V31H78.0962V26H73.0962ZM67.0962 26H62.0962V31H67.0962V26ZM67.0962 20H72.0962V15H67.0962V20ZM58.0962 20V15H53.0962V20H58.0962ZM58.0962 26V31H63.0962V26H58.0962ZM58.0962 17H53.0962V22H58.0962V17ZM67.0962 17V22H72.0962V17H67.0962ZM67.0962 11H72.0962V6H67.0962V11ZM64.0962 11H59.0962V16H64.0962V11ZM64.0962 8H69.0962V3H64.0962V8ZM61.0962 8V3H56.0962V8H61.0962ZM61.0962 11V16H66.0962V11H61.0962ZM58.0962 11V6H53.0962V11H58.0962ZM57.0962 26V11H47.0962V26H57.0962ZM52.0962 16H55.0962V6H52.0962V16ZM60.0962 11V8H50.0962V11H60.0962ZM55.0962 13H58.0962V3H55.0962V13ZM63.0962 8V5H53.0962V8H63.0962ZM58.0962 10H67.0962V0H58.0962V10ZM62.0962 5V8H72.0962V5H62.0962ZM67.0962 13H70.0962V3H67.0962V13ZM65.0962 8V11H75.0962V8H65.0962ZM70.0962 16H73.0962V6H70.0962V16ZM68.0962 11V26H78.0962V11H68.0962ZM73.0962 21H67.0962V31H73.0962V21ZM72.0962 26V20H62.0962V26H72.0962ZM67.0962 15H58.0962V25H67.0962V15ZM53.0962 20V26H63.0962V20H53.0962ZM58.0962 21H52.0962V31H58.0962V21ZM58.0962 22H67.0962V12H58.0962V22ZM72.0962 17V11H62.0962V17H72.0962ZM67.0962 6H64.0962V16H67.0962V6ZM69.0962 11V8H59.0962V11H69.0962ZM64.0962 3H61.0962V13H64.0962V3ZM56.0962 8V11H66.0962V8H56.0962ZM61.0962 6H58.0962V16H61.0962V6ZM53.0962 11V17H63.0962V11H53.0962ZM76.0962 26H71.0962V31H76.0962V26ZM76.0962 5V0H71.0962V5H76.0962ZM91.0962 5H96.0962V0H91.0962V5ZM91.0962 8H86.0962V13H91.0962V8ZM94.0962 8H99.0962V3H94.0962V8ZM94.0962 11H89.0962V16H94.0962V11ZM97.0962 11H102.096V6H97.0962V11ZM97.0962 20V25H102.096V20H97.0962ZM94.0962 20V15H89.0962V20H94.0962ZM94.0962 23V28H99.0962V23H94.0962ZM91.0962 23V18H86.0962V23H91.0962ZM91.0962 26V31H96.0962V26H91.0962ZM82.0962 23H77.0962V28H82.0962V23ZM88.0962 23V28H93.0962V23H88.0962ZM88.0962 20V15H83.0962V20H88.0962ZM91.0962 20V25H96.0962V20H91.0962ZM91.0962 11H96.0962V6H91.0962V11ZM88.0962 11H83.0962V16H88.0962V11ZM88.0962 8H93.0962V3H88.0962V8ZM82.0962 8V3H77.0962V8H82.0962ZM81.0962 26V5H71.0962V26H81.0962ZM76.0962 10H91.0962V0H76.0962V10ZM86.0962 5V8H96.0962V5H86.0962ZM91.0962 13H94.0962V3H91.0962V13ZM89.0962 8V11H99.0962V8H89.0962ZM94.0962 16H97.0962V6H94.0962V16ZM92.0962 11V20H102.096V11H92.0962ZM97.0962 15H94.0962V25H97.0962V15ZM89.0962 20V23H99.0962V20H89.0962ZM94.0962 18H91.0962V28H94.0962V18ZM86.0962 23V26H96.0962V23H86.0962ZM91.0962 21H76.0962V31H91.0962V21ZM82.0962 28H88.0962V18H82.0962V28ZM93.0962 23V20H83.0962V23H93.0962ZM88.0962 25H91.0962V15H88.0962V25ZM96.0962 20V11H86.0962V20H96.0962ZM91.0962 6H88.0962V16H91.0962V6ZM93.0962 11V8H83.0962V11H93.0962ZM88.0962 3H82.0962V13H88.0962V3ZM77.0962 8V23H87.0962V8H77.0962ZM100.096 26H95.0962V31H100.096V26ZM100.096 5V0H95.0962V5H100.096ZM106.096 5H111.096V0H106.096V5ZM106.096 8H101.096V13H106.096V8ZM109.096 8H114.096V3H109.096V8ZM109.096 11H104.096V16H109.096V11ZM112.096 11V16H117.096V11H112.096ZM112.096 8V3H107.096V8H112.096ZM115.096 8V13H120.096V8H115.096ZM115.096 5V0H110.096V5H115.096ZM121.096 5H126.096V0H121.096V5ZM121.096 26V31H126.096V26H121.096ZM115.096 26H110.096V31H115.096V26ZM115.096 14H120.096V9H115.096V14ZM112.096 14V9H107.096V14H112.096ZM112.096 20V25H117.096V20H112.096ZM109.096 20H104.096V25H109.096V20ZM109.096 14H114.096V9H109.096V14ZM106.096 14V9H101.096V14H106.096ZM106.096 26V31H111.096V26H106.096ZM105.096 26V5H95.0962V26H105.096ZM100.096 10H106.096V0H100.096V10ZM101.096 5V8H111.096V5H101.096ZM106.096 13H109.096V3H106.096V13ZM104.096 8V11H114.096V8H104.096ZM109.096 16H112.096V6H109.096V16ZM117.096 11V8H107.096V11H117.096ZM112.096 13H115.096V3H112.096V13ZM120.096 8V5H110.096V8H120.096ZM115.096 10H121.096V0H115.096V10ZM116.096 5V26H126.096V5H116.096ZM121.096 21H115.096V31H121.096V21ZM120.096 26V14H110.096V26H120.096ZM115.096 9H112.096V19H115.096V9ZM107.096 14V20H117.096V14H107.096ZM112.096 15H109.096V25H112.096V15ZM114.096 20V14H104.096V20H114.096ZM109.096 9H106.096V19H109.096V9ZM101.096 14V26H111.096V14H101.096ZM106.096 21H100.096V31H106.096V21ZM127.096 26H122.096V31H127.096V26ZM127.096 23V18H122.096V23H127.096ZM133.096 23V28H138.096V23H133.096ZM133.096 8H138.096V3H133.096V8ZM127.096 8H122.096V13H127.096V8ZM127.096 5V0H122.096V5H127.096ZM145.096 5H150.096V0H145.096V5ZM145.096 8V13H150.096V8H145.096ZM139.096 8V3H134.096V8H139.096ZM139.096 23H134.096V28H139.096V23ZM145.096 23H150.096V18H145.096V23ZM145.096 26V31H150.096V26H145.096ZM132.096 26V23H122.096V26H132.096ZM127.096 28H133.096V18H127.096V28ZM138.096 23V8H128.096V23H138.096ZM133.096 3H127.096V13H133.096V3ZM132.096 8V5H122.096V8H132.096ZM127.096 10H145.096V0H127.096V10ZM140.096 5V8H150.096V5H140.096ZM145.096 3H139.096V13H145.096V3ZM134.096 8V23H144.096V8H134.096ZM139.096 28H145.096V18H139.096V28ZM140.096 23V26H150.096V23H140.096ZM145.096 21H127.096V31H145.096V21ZM148.096 26H143.096V31H148.096V26ZM148.096 5V0H143.096V5H148.096ZM154.096 5H159.096V0H154.096V5ZM154.096 8H149.096V13H154.096V8ZM157.096 8H162.096V3H157.096V8ZM157.096 11H152.096V16H157.096V11ZM160.096 11H165.096V6H160.096V11ZM160.096 14H155.096V19H160.096V14ZM163.096 14V19H168.096V14H163.096ZM163.096 5V0H158.096V5H163.096ZM169.096 5H174.096V0H169.096V5ZM169.096 26V31H174.096V26H169.096ZM163.096 26H158.096V31H163.096V26ZM163.096 20H168.096V15H163.096V20ZM160.096 20H155.096V25H160.096V20ZM160.096 17H165.096V12H160.096V17ZM157.096 17H152.096V22H157.096V17ZM157.096 14H162.096V9H157.096V14ZM154.096 14V9H149.096V14H154.096ZM154.096 26V31H159.096V26H154.096ZM153.096 26V5H143.096V26H153.096ZM148.096 10H154.096V0H148.096V10ZM149.096 5V8H159.096V5H149.096ZM154.096 13H157.096V3H154.096V13ZM152.096 8V11H162.096V8H152.096ZM157.096 16H160.096V6H157.096V16ZM155.096 11V14H165.096V11H155.096ZM160.096 19H163.096V9H160.096V19ZM168.096 14V5H158.096V14H168.096ZM163.096 10H169.096V0H163.096V10ZM164.096 5V26H174.096V5H164.096ZM169.096 21H163.096V31H169.096V21ZM168.096 26V20H158.096V26H168.096ZM163.096 15H160.096V25H163.096V15ZM165.096 20V17H155.096V20H165.096ZM160.096 12H157.096V22H160.096V12ZM162.096 17V14H152.096V17H162.096ZM157.096 9H154.096V19H157.096V9ZM149.096 14V26H159.096V14H149.096ZM154.096 21H148.096V31H154.096V21ZM67.0962 50H62.0962V55H67.0962V50ZM67.0962 47H72.0962V42H67.0962V47ZM64.0962 47H59.0962V52H64.0962V47ZM64.0962 32V27H59.0962V32H64.0962ZM67.0962 32V37H72.0962V32H67.0962ZM67.0962 29V24H62.0962V29H67.0962ZM82.0962 29H87.0962V24H82.0962V29ZM82.0962 32H77.0962V37H82.0962V32ZM85.0962 32H90.0962V27H85.0962V32ZM85.0962 47V52H90.0962V47H85.0962ZM82.0962 47V42H77.0962V47H82.0962ZM82.0962 50V55H87.0962V50H82.0962ZM70.0962 47H65.0962V52H70.0962V47ZM79.0962 47V52H84.0962V47H79.0962ZM79.0962 32H84.0962V27H79.0962V32ZM70.0962 32V27H65.0962V32H70.0962ZM72.0962 50V47H62.0962V50H72.0962ZM67.0962 42H64.0962V52H67.0962V42ZM69.0962 47V32H59.0962V47H69.0962ZM64.0962 37H67.0962V27H64.0962V37ZM72.0962 32V29H62.0962V32H72.0962ZM67.0962 34H82.0962V24H67.0962V34ZM77.0962 29V32H87.0962V29H77.0962ZM82.0962 37H85.0962V27H82.0962V37ZM80.0962 32V47H90.0962V32H80.0962ZM85.0962 42H82.0962V52H85.0962V42ZM77.0962 47V50H87.0962V47H77.0962ZM82.0962 45H67.0962V55H82.0962V45ZM70.0962 52H79.0962V42H70.0962V52ZM84.0962 47V32H74.0962V47H84.0962ZM79.0962 27H70.0962V37H79.0962V27ZM65.0962 32V47H75.0962V32H65.0962ZM88.0962 50H83.0962V55H88.0962V50ZM88.0962 29V24H83.0962V29H88.0962ZM94.0962 29H99.0962V24H94.0962V29ZM94.0962 32H89.0962V37H94.0962V32ZM97.0962 32H102.096V27H97.0962V32ZM97.0962 35H92.0962V40H97.0962V35ZM100.096 35H105.096V30H100.096V35ZM100.096 38H95.0962V43H100.096V38ZM103.096 38V43H108.096V38H103.096ZM103.096 29V24H98.0962V29H103.096ZM109.096 29H114.096V24H109.096V29ZM109.096 50V55H114.096V50H109.096ZM103.096 50H98.0962V55H103.096V50ZM103.096 44H108.096V39H103.096V44ZM100.096 44H95.0962V49H100.096V44ZM100.096 41H105.096V36H100.096V41ZM97.0962 41H92.0962V46H97.0962V41ZM97.0962 38H102.096V33H97.0962V38ZM94.0962 38V33H89.0962V38H94.0962ZM94.0962 50V55H99.0962V50H94.0962ZM93.0962 50V29H83.0962V50H93.0962ZM88.0962 34H94.0962V24H88.0962V34ZM89.0962 29V32H99.0962V29H89.0962ZM94.0962 37H97.0962V27H94.0962V37ZM92.0962 32V35H102.096V32H92.0962ZM97.0962 40H100.096V30H97.0962V40ZM95.0962 35V38H105.096V35H95.0962ZM100.096 43H103.096V33H100.096V43ZM108.096 38V29H98.0962V38H108.096ZM103.096 34H109.096V24H103.096V34ZM104.096 29V50H114.096V29H104.096ZM109.096 45H103.096V55H109.096V45ZM108.096 50V44H98.0962V50H108.096ZM103.096 39H100.096V49H103.096V39ZM105.096 44V41H95.0962V44H105.096ZM100.096 36H97.0962V46H100.096V36ZM102.096 41V38H92.0962V41H102.096ZM97.0962 33H94.0962V43H97.0962V33ZM89.0962 38V50H99.0962V38H89.0962ZM94.0962 45H88.0962V55H94.0962V45ZM115.096 50H110.096V55H115.096V50ZM115.096 29V24H110.096V29H115.096ZM121.096 29H126.096V24H121.096V29ZM121.096 47H116.096V52H121.096V47ZM133.096 47H138.096V42H133.096V47ZM133.096 50V55H138.096V50H133.096ZM120.096 50V29H110.096V50H120.096ZM115.096 34H121.096V24H115.096V34ZM116.096 29V47H126.096V29H116.096ZM121.096 52H133.096V42H121.096V52ZM128.096 47V50H138.096V47H128.096ZM133.096 45H115.096V55H133.096V45ZM145.096 50H140.096V55H145.096V50ZM145.096 41H150.096V36H145.096V41ZM142.096 41H137.096V46H142.096V41ZM142.096 38H147.096V33H142.096V38ZM139.096 38H134.096V43H139.096V38ZM139.096 29V24H134.096V29H139.096ZM145.096 29H150.096V24H145.096V29ZM145.096 38H140.096V43H145.096V38ZM151.096 38V43H156.096V38H151.096ZM151.096 29V24H146.096V29H151.096ZM157.096 29H162.096V24H157.096V29ZM157.096 38V43H162.096V38H157.096ZM154.096 38V33H149.096V38H154.096ZM154.096 41V46H159.096V41H154.096ZM151.096 41V36H146.096V41H151.096ZM151.096 50V55H156.096V50H151.096ZM150.096 50V41H140.096V50H150.096ZM145.096 36H142.096V46H145.096V36ZM147.096 41V38H137.096V41H147.096ZM142.096 33H139.096V43H142.096V33ZM144.096 38V29H134.096V38H144.096ZM139.096 34H145.096V24H139.096V34ZM140.096 29V38H150.096V29H140.096ZM145.096 43H151.096V33H145.096V43ZM156.096 38V29H146.096V38H156.096ZM151.096 34H157.096V24H151.096V34ZM152.096 29V38H162.096V29H152.096ZM157.096 33H154.096V43H157.096V33ZM149.096 38V41H159.096V38H149.096ZM154.096 36H151.096V46H154.096V36ZM146.096 41V50H156.096V41H146.096ZM151.096 45H145.096V55H151.096V45Z" fill="white" mask="url(#path-1-outside-1_2201_99)"/>
<g clip-path="url(#clip0_2201_99)">
<path fill-rule="evenodd" clip-rule="evenodd" d="M50.1372 40.7091C51.8392 40.7039 53.2148 39.3198 53.2095 37.6179L53.1826 28.9012C53.1773 27.1992 51.7933 25.8237 50.0913 25.8288C48.3893 25.834 47.0137 27.2181 47.019 28.9201L47.0364 34.555L42.3041 34.5695L42.2868 28.9347C42.2815 27.2327 40.8975 25.8572 39.1955 25.8624C37.4935 25.8676 36.1179 27.2517 36.1232 28.9537L36.1405 34.5885L31.5476 34.6027C31.0104 32.5398 29.9306 30.5893 28.3091 28.9778C23.4803 24.1786 15.675 24.2025 10.8758 29.0314C6.0765 33.8604 6.10063 41.6656 10.9295 46.4648C15.7584 51.2641 23.5635 51.24 28.3628 46.4111C29.9744 44.7896 31.0421 42.8325 31.5666 40.7663L39.2256 40.7427L39.2413 40.7427L39.257 40.7426L50.1372 40.7091ZM15.2744 42.093C17.6888 44.4927 21.5914 44.4807 23.9911 42.0662C26.3907 39.6517 26.3787 35.7492 23.9642 33.3495C21.5497 30.9498 17.6472 30.9619 15.2475 33.3764C12.8479 35.7908 12.8598 39.6933 15.2744 42.093Z" fill="white"/>
</g>
<defs>
<clipPath id="clip0_2201_99">
<rect width="43.1456" height="43.1456" fill="white" transform="matrix(0.704926 -0.709281 -0.709281 -0.704926 30.6023 66.0168)"/>
</clipPath>
</defs>
</svg>
