<svg width="212" height="31" viewBox="0 0 212 31" fill="none" xmlns="http://www.w3.org/2000/svg">
<mask id="path-1-outside-1_2209_230" maskUnits="userSpaceOnUse" x="24.5962" y="0" width="176" height="31" fill="black">
<rect fill="white" x="24.5962" width="176" height="31"/>
<path d="M30.0962 26V5H36.0962V14H45.0962V5H51.0962V26H45.0962V17H36.0962V26H30.0962ZM57.0962 26V23H63.0962V8H57.0962V5H75.0962V8H69.0962V23H75.0962V26H57.0962ZM81.0962 26V23H78.0962V20H84.0962V23H93.0962V17H81.0962V14H78.0962V8H81.0962V5H96.0962V8H99.0962V11H93.0962V8H84.0962V14H96.0962V17H99.0962V23H96.0962V26H81.0962ZM111.096 26V8H105.096V5H123.096V8H117.096V26H111.096ZM129.096 26V23H126.096V8H129.096V5H144.096V8H147.096V23H144.096V26H129.096ZM132.096 23H141.096V8H132.096V23ZM150.096 26V5H168.096V8H171.096V17H165.096V20H168.096V23H171.096V26H162.096V23H159.096V20H156.096V26H150.096ZM156.096 17H162.096V14H165.096V8H156.096V17ZM183.096 26V17H180.096V14H177.096V5H183.096V14H189.096V5H195.096V14H192.096V17H189.096V26H183.096Z"/>
</mask>
<path d="M30.0962 26V5H36.0962V14H45.0962V5H51.0962V26H45.0962V17H36.0962V26H30.0962ZM57.0962 26V23H63.0962V8H57.0962V5H75.0962V8H69.0962V23H75.0962V26H57.0962ZM81.0962 26V23H78.0962V20H84.0962V23H93.0962V17H81.0962V14H78.0962V8H81.0962V5H96.0962V8H99.0962V11H93.0962V8H84.0962V14H96.0962V17H99.0962V23H96.0962V26H81.0962ZM111.096 26V8H105.096V5H123.096V8H117.096V26H111.096ZM129.096 26V23H126.096V8H129.096V5H144.096V8H147.096V23H144.096V26H129.096ZM132.096 23H141.096V8H132.096V23ZM150.096 26V5H168.096V8H171.096V17H165.096V20H168.096V23H171.096V26H162.096V23H159.096V20H156.096V26H150.096ZM156.096 17H162.096V14H165.096V8H156.096V17ZM183.096 26V17H180.096V14H177.096V5H183.096V14H189.096V5H195.096V14H192.096V17H189.096V26H183.096Z" fill="#F9C943"/>
<path d="M30.0962 26H25.0962V31H30.0962V26ZM30.0962 5V0H25.0962V5H30.0962ZM36.0962 5H41.0962V0H36.0962V5ZM36.0962 14H31.0962V19H36.0962V14ZM45.0962 14V19H50.0962V14H45.0962ZM45.0962 5V0H40.0962V5H45.0962ZM51.0962 5H56.0962V0H51.0962V5ZM51.0962 26V31H56.0962V26H51.0962ZM45.0962 26H40.0962V31H45.0962V26ZM45.0962 17H50.0962V12H45.0962V17ZM36.0962 17V12H31.0962V17H36.0962ZM36.0962 26V31H41.0962V26H36.0962ZM35.0962 26V5H25.0962V26H35.0962ZM30.0962 10H36.0962V0H30.0962V10ZM31.0962 5V14H41.0962V5H31.0962ZM36.0962 19H45.0962V9H36.0962V19ZM50.0962 14V5H40.0962V14H50.0962ZM45.0962 10H51.0962V0H45.0962V10ZM46.0962 5V26H56.0962V5H46.0962ZM51.0962 21H45.0962V31H51.0962V21ZM50.0962 26V17H40.0962V26H50.0962ZM45.0962 12H36.0962V22H45.0962V12ZM31.0962 17V26H41.0962V17H31.0962ZM36.0962 21H30.0962V31H36.0962V21ZM57.0962 26H52.0962V31H57.0962V26ZM57.0962 23V18H52.0962V23H57.0962ZM63.0962 23V28H68.0962V23H63.0962ZM63.0962 8H68.0962V3H63.0962V8ZM57.0962 8H52.0962V13H57.0962V8ZM57.0962 5V0H52.0962V5H57.0962ZM75.0962 5H80.0962V0H75.0962V5ZM75.0962 8V13H80.0962V8H75.0962ZM69.0962 8V3H64.0962V8H69.0962ZM69.0962 23H64.0962V28H69.0962V23ZM75.0962 23H80.0962V18H75.0962V23ZM75.0962 26V31H80.0962V26H75.0962ZM62.0962 26V23H52.0962V26H62.0962ZM57.0962 28H63.0962V18H57.0962V28ZM68.0962 23V8H58.0962V23H68.0962ZM63.0962 3H57.0962V13H63.0962V3ZM62.0962 8V5H52.0962V8H62.0962ZM57.0962 10H75.0962V0H57.0962V10ZM70.0962 5V8H80.0962V5H70.0962ZM75.0962 3H69.0962V13H75.0962V3ZM64.0962 8V23H74.0962V8H64.0962ZM69.0962 28H75.0962V18H69.0962V28ZM70.0962 23V26H80.0962V23H70.0962ZM75.0962 21H57.0962V31H75.0962V21ZM81.0962 26H76.0962V31H81.0962V26ZM81.0962 23H86.0962V18H81.0962V23ZM78.0962 23H73.0962V28H78.0962V23ZM78.0962 20V15H73.0962V20H78.0962ZM84.0962 20H89.0962V15H84.0962V20ZM84.0962 23H79.0962V28H84.0962V23ZM93.0962 23V28H98.0962V23H93.0962ZM93.0962 17H98.0962V12H93.0962V17ZM81.0962 17H76.0962V22H81.0962V17ZM81.0962 14H86.0962V9H81.0962V14ZM78.0962 14H73.0962V19H78.0962V14ZM78.0962 8V3H73.0962V8H78.0962ZM81.0962 8V13H86.0962V8H81.0962ZM81.0962 5V0H76.0962V5H81.0962ZM96.0962 5H101.096V0H96.0962V5ZM96.0962 8H91.0962V13H96.0962V8ZM99.0962 8H104.096V3H99.0962V8ZM99.0962 11V16H104.096V11H99.0962ZM93.0962 11H88.0962V16H93.0962V11ZM93.0962 8H98.0962V3H93.0962V8ZM84.0962 8V3H79.0962V8H84.0962ZM84.0962 14H79.0962V19H84.0962V14ZM96.0962 14H101.096V9H96.0962V14ZM96.0962 17H91.0962V22H96.0962V17ZM99.0962 17H104.096V12H99.0962V17ZM99.0962 23V28H104.096V23H99.0962ZM96.0962 23V18H91.0962V23H96.0962ZM96.0962 26V31H101.096V26H96.0962ZM86.0962 26V23H76.0962V26H86.0962ZM81.0962 18H78.0962V28H81.0962V18ZM83.0962 23V20H73.0962V23H83.0962ZM78.0962 25H84.0962V15H78.0962V25ZM79.0962 20V23H89.0962V20H79.0962ZM84.0962 28H93.0962V18H84.0962V28ZM98.0962 23V17H88.0962V23H98.0962ZM93.0962 12H81.0962V22H93.0962V12ZM86.0962 17V14H76.0962V17H86.0962ZM81.0962 9H78.0962V19H81.0962V9ZM83.0962 14V8H73.0962V14H83.0962ZM78.0962 13H81.0962V3H78.0962V13ZM86.0962 8V5H76.0962V8H86.0962ZM81.0962 10H96.0962V0H81.0962V10ZM91.0962 5V8H101.096V5H91.0962ZM96.0962 13H99.0962V3H96.0962V13ZM94.0962 8V11H104.096V8H94.0962ZM99.0962 6H93.0962V16H99.0962V6ZM98.0962 11V8H88.0962V11H98.0962ZM93.0962 3H84.0962V13H93.0962V3ZM79.0962 8V14H89.0962V8H79.0962ZM84.0962 19H96.0962V9H84.0962V19ZM91.0962 14V17H101.096V14H91.0962ZM96.0962 22H99.0962V12H96.0962V22ZM94.0962 17V23H104.096V17H94.0962ZM99.0962 18H96.0962V28H99.0962V18ZM91.0962 23V26H101.096V23H91.0962ZM96.0962 21H81.0962V31H96.0962V21ZM111.096 26H106.096V31H111.096V26ZM111.096 8H116.096V3H111.096V8ZM105.096 8H100.096V13H105.096V8ZM105.096 5V0H100.096V5H105.096ZM123.096 5H128.096V0H123.096V5ZM123.096 8V13H128.096V8H123.096ZM117.096 8V3H112.096V8H117.096ZM117.096 26V31H122.096V26H117.096ZM116.096 26V8H106.096V26H116.096ZM111.096 3H105.096V13H111.096V3ZM110.096 8V5H100.096V8H110.096ZM105.096 10H123.096V0H105.096V10ZM118.096 5V8H128.096V5H118.096ZM123.096 3H117.096V13H123.096V3ZM112.096 8V26H122.096V8H112.096ZM117.096 21H111.096V31H117.096V21ZM129.096 26H124.096V31H129.096V26ZM129.096 23H134.096V18H129.096V23ZM126.096 23H121.096V28H126.096V23ZM126.096 8V3H121.096V8H126.096ZM129.096 8V13H134.096V8H129.096ZM129.096 5V0H124.096V5H129.096ZM144.096 5H149.096V0H144.096V5ZM144.096 8H139.096V13H144.096V8ZM147.096 8H152.096V3H147.096V8ZM147.096 23V28H152.096V23H147.096ZM144.096 23V18H139.096V23H144.096ZM144.096 26V31H149.096V26H144.096ZM132.096 23H127.096V28H132.096V23ZM141.096 23V28H146.096V23H141.096ZM141.096 8H146.096V3H141.096V8ZM132.096 8V3H127.096V8H132.096ZM134.096 26V23H124.096V26H134.096ZM129.096 18H126.096V28H129.096V18ZM131.096 23V8H121.096V23H131.096ZM126.096 13H129.096V3H126.096V13ZM134.096 8V5H124.096V8H134.096ZM129.096 10H144.096V0H129.096V10ZM139.096 5V8H149.096V5H139.096ZM144.096 13H147.096V3H144.096V13ZM142.096 8V23H152.096V8H142.096ZM147.096 18H144.096V28H147.096V18ZM139.096 23V26H149.096V23H139.096ZM144.096 21H129.096V31H144.096V21ZM132.096 28H141.096V18H132.096V28ZM146.096 23V8H136.096V23H146.096ZM141.096 3H132.096V13H141.096V3ZM127.096 8V23H137.096V8H127.096ZM150.096 26H145.096V31H150.096V26ZM150.096 5V0H145.096V5H150.096ZM168.096 5H173.096V0H168.096V5ZM168.096 8H163.096V13H168.096V8ZM171.096 8H176.096V3H171.096V8ZM171.096 17V22H176.096V17H171.096ZM165.096 17V12H160.096V17H165.096ZM165.096 20H160.096V25H165.096V20ZM168.096 20H173.096V15H168.096V20ZM168.096 23H163.096V28H168.096V23ZM171.096 23H176.096V18H171.096V23ZM171.096 26V31H176.096V26H171.096ZM162.096 26H157.096V31H162.096V26ZM162.096 23H167.096V18H162.096V23ZM159.096 23H154.096V28H159.096V23ZM159.096 20H164.096V15H159.096V20ZM156.096 20V15H151.096V20H156.096ZM156.096 26V31H161.096V26H156.096ZM156.096 17H151.096V22H156.096V17ZM162.096 17V22H167.096V17H162.096ZM162.096 14V9H157.096V14H162.096ZM165.096 14V19H170.096V14H165.096ZM165.096 8H170.096V3H165.096V8ZM156.096 8V3H151.096V8H156.096ZM155.096 26V5H145.096V26H155.096ZM150.096 10H168.096V0H150.096V10ZM163.096 5V8H173.096V5H163.096ZM168.096 13H171.096V3H168.096V13ZM166.096 8V17H176.096V8H166.096ZM171.096 12H165.096V22H171.096V12ZM160.096 17V20H170.096V17H160.096ZM165.096 25H168.096V15H165.096V25ZM163.096 20V23H173.096V20H163.096ZM168.096 28H171.096V18H168.096V28ZM166.096 23V26H176.096V23H166.096ZM171.096 21H162.096V31H171.096V21ZM167.096 26V23H157.096V26H167.096ZM162.096 18H159.096V28H162.096V18ZM164.096 23V20H154.096V23H164.096ZM159.096 15H156.096V25H159.096V15ZM151.096 20V26H161.096V20H151.096ZM156.096 21H150.096V31H156.096V21ZM156.096 22H162.096V12H156.096V22ZM167.096 17V14H157.096V17H167.096ZM162.096 19H165.096V9H162.096V19ZM170.096 14V8H160.096V14H170.096ZM165.096 3H156.096V13H165.096V3ZM151.096 8V17H161.096V8H151.096ZM183.096 26H178.096V31H183.096V26ZM183.096 17H188.096V12H183.096V17ZM180.096 17H175.096V22H180.096V17ZM180.096 14H185.096V9H180.096V14ZM177.096 14H172.096V19H177.096V14ZM177.096 5V0H172.096V5H177.096ZM183.096 5H188.096V0H183.096V5ZM183.096 14H178.096V19H183.096V14ZM189.096 14V19H194.096V14H189.096ZM189.096 5V0H184.096V5H189.096ZM195.096 5H200.096V0H195.096V5ZM195.096 14V19H200.096V14H195.096ZM192.096 14V9H187.096V14H192.096ZM192.096 17V22H197.096V17H192.096ZM189.096 17V12H184.096V17H189.096ZM189.096 26V31H194.096V26H189.096ZM188.096 26V17H178.096V26H188.096ZM183.096 12H180.096V22H183.096V12ZM185.096 17V14H175.096V17H185.096ZM180.096 9H177.096V19H180.096V9ZM182.096 14V5H172.096V14H182.096ZM177.096 10H183.096V0H177.096V10ZM178.096 5V14H188.096V5H178.096ZM183.096 19H189.096V9H183.096V19ZM194.096 14V5H184.096V14H194.096ZM189.096 10H195.096V0H189.096V10ZM190.096 5V14H200.096V5H190.096ZM195.096 9H192.096V19H195.096V9ZM187.096 14V17H197.096V14H187.096ZM192.096 12H189.096V22H192.096V12ZM184.096 17V26H194.096V17H184.096ZM189.096 21H183.096V31H189.096V21Z" fill="white" mask="url(#path-1-outside-1_2209_230)"/>
<g clip-path="url(#clip0_2209_230)">
<path fill-rule="evenodd" clip-rule="evenodd" d="M26.5716 23.8036H26.0181V27.6786H26.5716C27.4888 27.6786 28.2324 28.4221 28.2324 29.3393C28.2324 30.2564 27.4888 31 26.5716 31H8.027C5.12256 31 2.76807 28.6455 2.76807 25.7411V4.98214C2.76807 2.23058 4.99865 0 7.75021 0H23.2502C26.0017 0 28.2324 2.23058 28.2324 4.98214V22.1429C28.2324 23.06 27.4888 23.8036 26.5716 23.8036ZM8.027 23.8036H22.6966V27.6786H8.027C6.95694 27.6786 6.0895 26.811 6.0895 25.7411C6.0895 24.6711 6.95694 23.8036 8.027 23.8036ZM15.8782 6.26355C15.5024 6.1888 15.1128 6.22717 14.7588 6.37382C14.4047 6.52045 14.1021 6.76878 13.8892 7.08742C13.6763 7.40603 13.5627 7.78062 13.5627 8.16383C13.5627 8.92815 12.9431 9.54776 12.1788 9.54776C11.4145 9.54776 10.7949 8.92815 10.7949 8.16383C10.7949 7.23319 11.0708 6.32347 11.5879 5.54966C12.1049 4.77588 12.8397 4.17278 13.6996 3.81665C14.5593 3.46051 15.5054 3.36733 16.4182 3.54888C17.3309 3.73045 18.1694 4.17858 18.8274 4.83664C19.4855 5.49468 19.9336 6.3331 20.1152 7.24585C20.2967 8.1586 20.2035 9.1047 19.8474 9.96449C19.4913 10.8243 18.8882 11.5592 18.1144 12.0762C17.7323 12.3315 17.317 12.528 16.8824 12.6616C16.8464 13.3938 16.2413 13.9763 15.5002 13.9763C14.7359 13.9763 14.1163 13.3567 14.1163 12.5924V11.4853C14.1163 10.7209 14.7359 10.1013 15.5002 10.1013C15.8834 10.1013 16.258 9.98769 16.5766 9.77481C16.8953 9.56191 17.1436 9.2593 17.2902 8.90528C17.4369 8.55124 17.4752 8.16168 17.4005 7.78585C17.3257 7.41 17.1412 7.06477 16.8702 6.7938C16.5993 6.52284 16.254 6.33833 15.8782 6.26355ZM15.5002 19.6711C14.4302 19.6711 13.5627 18.8036 13.5627 17.7336C13.5627 16.6635 14.4302 15.7961 15.5002 15.7961C16.5703 15.7961 17.4377 16.6635 17.4377 17.7336C17.4377 18.8036 16.5703 19.6711 15.5002 19.6711Z" fill="white"/>
</g>
<defs>
<clipPath id="clip0_2209_230">
<rect width="31" height="31" fill="white"/>
</clipPath>
</defs>
</svg>
