<svg width="93" height="93" viewBox="0 0 93 93" fill="none" xmlns="http://www.w3.org/2000/svg">
<rect x="14.3813" y="8.62891" width="60.4021" height="78.6186" fill="white"/>
<g clip-path="url(#clip0_2209_1001)">
<path fill-rule="evenodd" clip-rule="evenodd" d="M79.7144 71.4107H78.0537V83.0357H79.7144C82.4659 83.0357 84.6966 85.2664 84.6966 88.0179C84.6966 90.7693 82.4659 93 79.7144 93H24.0805C15.3672 93 8.30371 85.9366 8.30371 77.2232V14.9464C8.30371 6.69175 14.9955 0 23.2501 0H69.7501C78.0045 0 84.6966 6.69175 84.6966 14.9464V66.4286C84.6966 69.18 82.4659 71.4107 79.7144 71.4107ZM24.0805 71.4107H68.0894V83.0357H24.0805C20.8703 83.0357 18.268 80.433 18.268 77.2232C18.268 74.0134 20.8703 71.4107 24.0805 71.4107ZM47.6341 18.7907C46.5066 18.5664 45.3379 18.6815 44.2758 19.1215C43.2137 19.5614 42.3059 20.3064 41.6672 21.2623C41.0285 22.2181 40.6876 23.3419 40.6876 24.4915C40.6876 26.7845 38.8288 28.6433 36.5359 28.6433C34.2429 28.6433 32.3841 26.7845 32.3841 24.4915C32.3841 21.6996 33.212 18.9704 34.7631 16.649C36.3142 14.3276 38.5187 12.5183 41.0982 11.45C43.6775 10.3815 46.5158 10.102 49.2541 10.6466C51.9923 11.1914 54.5076 12.5357 56.4817 14.5099C58.4559 16.484 59.8003 18.9993 60.345 21.7376C60.8896 24.4758 60.6101 27.3141 59.5417 29.8935C58.4733 32.4729 56.664 34.6775 54.3426 36.2285C53.1963 36.9945 51.9505 37.5841 50.6468 37.9848C50.5387 40.1813 48.7235 41.929 46.5001 41.929C44.2072 41.929 42.3484 40.0702 42.3484 37.7772V34.4558C42.3484 32.1628 44.2072 30.304 46.5001 30.304C47.6497 30.304 48.7735 29.9631 49.7294 29.3244C50.6853 28.6857 51.4303 27.7779 51.8702 26.7158C52.3101 25.6537 52.4252 24.485 52.201 23.3575C51.9767 22.23 51.4231 21.1943 50.6102 20.3814C49.7973 19.5685 48.7616 19.015 47.6341 18.7907ZM46.5001 59.0132C43.29 59.0132 40.6876 56.4109 40.6876 53.2007C40.6876 49.9906 43.29 47.3882 46.5001 47.3882C49.7103 47.3882 52.3126 49.9906 52.3126 53.2007C52.3126 56.4109 49.7103 59.0132 46.5001 59.0132Z" fill="#FDBA00"/>
</g>
<defs>
<clipPath id="clip0_2209_1001">
<rect width="93" height="93" fill="white"/>
</clipPath>
</defs>
</svg>
