<svg width="196" height="64" viewBox="0 0 196 64" fill="none" xmlns="http://www.w3.org/2000/svg">
<mask id="path-1-outside-1_2209_145" maskUnits="userSpaceOnUse" x="56.5962" y="9.00012" width="80" height="55" fill="black">
<rect fill="white" x="56.5962" y="9.00012" width="80" height="55"/>
<path d="M65.0962 35.0001V14.0001H71.0962V32.0001H83.0962V35.0001H65.0962ZM89.0962 35.0001V32.0001H86.0962V17.0001H89.0962V14.0001H104.096V17.0001H107.096V32.0001H104.096V35.0001H89.0962ZM92.0962 32.0001H101.096V17.0001H92.0962V32.0001ZM116.096 35.0001V32.0001H113.096V29.0001H110.096V20.0001H113.096V17.0001H116.096V14.0001H131.096V17.0001H119.096V20.0001H116.096V29.0001H119.096V32.0001H125.096V26.0001H122.096V23.0001H131.096V35.0001H116.096ZM65.0962 59.0001V56.0001H62.0962V41.0001H65.0962V38.0001H80.0962V41.0001H83.0962V56.0001H80.0962V59.0001H65.0962ZM68.0962 56.0001H77.0962V41.0001H68.0962V56.0001ZM89.0962 59.0001V56.0001H86.0962V38.0001H92.0962V56.0001H101.096V38.0001H107.096V56.0001H104.096V59.0001H89.0962ZM119.096 59.0001V41.0001H113.096V38.0001H131.096V41.0001H125.096V59.0001H119.096Z"/>
</mask>
<path d="M65.0962 35.0001V14.0001H71.0962V32.0001H83.0962V35.0001H65.0962ZM89.0962 35.0001V32.0001H86.0962V17.0001H89.0962V14.0001H104.096V17.0001H107.096V32.0001H104.096V35.0001H89.0962ZM92.0962 32.0001H101.096V17.0001H92.0962V32.0001ZM116.096 35.0001V32.0001H113.096V29.0001H110.096V20.0001H113.096V17.0001H116.096V14.0001H131.096V17.0001H119.096V20.0001H116.096V29.0001H119.096V32.0001H125.096V26.0001H122.096V23.0001H131.096V35.0001H116.096ZM65.0962 59.0001V56.0001H62.0962V41.0001H65.0962V38.0001H80.0962V41.0001H83.0962V56.0001H80.0962V59.0001H65.0962ZM68.0962 56.0001H77.0962V41.0001H68.0962V56.0001ZM89.0962 59.0001V56.0001H86.0962V38.0001H92.0962V56.0001H101.096V38.0001H107.096V56.0001H104.096V59.0001H89.0962ZM119.096 59.0001V41.0001H113.096V38.0001H131.096V41.0001H125.096V59.0001H119.096Z" fill="#F9C943"/>
<path d="M65.0962 35.0001H60.0962V40.0001H65.0962V35.0001ZM65.0962 14.0001V9.00012H60.0962V14.0001H65.0962ZM71.0962 14.0001H76.0962V9.00012H71.0962V14.0001ZM71.0962 32.0001H66.0962V37.0001H71.0962V32.0001ZM83.0962 32.0001H88.0962V27.0001H83.0962V32.0001ZM83.0962 35.0001V40.0001H88.0962V35.0001H83.0962ZM70.0962 35.0001V14.0001H60.0962V35.0001H70.0962ZM65.0962 19.0001H71.0962V9.00012H65.0962V19.0001ZM66.0962 14.0001V32.0001H76.0962V14.0001H66.0962ZM71.0962 37.0001H83.0962V27.0001H71.0962V37.0001ZM78.0962 32.0001V35.0001H88.0962V32.0001H78.0962ZM83.0962 30.0001H65.0962V40.0001H83.0962V30.0001ZM89.0962 35.0001H84.0962V40.0001H89.0962V35.0001ZM89.0962 32.0001H94.0962V27.0001H89.0962V32.0001ZM86.0962 32.0001H81.0962V37.0001H86.0962V32.0001ZM86.0962 17.0001V12.0001H81.0962V17.0001H86.0962ZM89.0962 17.0001V22.0001H94.0962V17.0001H89.0962ZM89.0962 14.0001V9.00012H84.0962V14.0001H89.0962ZM104.096 14.0001H109.096V9.00012H104.096V14.0001ZM104.096 17.0001H99.0962V22.0001H104.096V17.0001ZM107.096 17.0001H112.096V12.0001H107.096V17.0001ZM107.096 32.0001V37.0001H112.096V32.0001H107.096ZM104.096 32.0001V27.0001H99.0962V32.0001H104.096ZM104.096 35.0001V40.0001H109.096V35.0001H104.096ZM92.0962 32.0001H87.0962V37.0001H92.0962V32.0001ZM101.096 32.0001V37.0001H106.096V32.0001H101.096ZM101.096 17.0001H106.096V12.0001H101.096V17.0001ZM92.0962 17.0001V12.0001H87.0962V17.0001H92.0962ZM94.0962 35.0001V32.0001H84.0962V35.0001H94.0962ZM89.0962 27.0001H86.0962V37.0001H89.0962V27.0001ZM91.0962 32.0001V17.0001H81.0962V32.0001H91.0962ZM86.0962 22.0001H89.0962V12.0001H86.0962V22.0001ZM94.0962 17.0001V14.0001H84.0962V17.0001H94.0962ZM89.0962 19.0001H104.096V9.00012H89.0962V19.0001ZM99.0962 14.0001V17.0001H109.096V14.0001H99.0962ZM104.096 22.0001H107.096V12.0001H104.096V22.0001ZM102.096 17.0001V32.0001H112.096V17.0001H102.096ZM107.096 27.0001H104.096V37.0001H107.096V27.0001ZM99.0962 32.0001V35.0001H109.096V32.0001H99.0962ZM104.096 30.0001H89.0962V40.0001H104.096V30.0001ZM92.0962 37.0001H101.096V27.0001H92.0962V37.0001ZM106.096 32.0001V17.0001H96.0962V32.0001H106.096ZM101.096 12.0001H92.0962V22.0001H101.096V12.0001ZM87.0962 17.0001V32.0001H97.0962V17.0001H87.0962ZM116.096 35.0001H111.096V40.0001H116.096V35.0001ZM116.096 32.0001H121.096V27.0001H116.096V32.0001ZM113.096 32.0001H108.096V37.0001H113.096V32.0001ZM113.096 29.0001H118.096V24.0001H113.096V29.0001ZM110.096 29.0001H105.096V34.0001H110.096V29.0001ZM110.096 20.0001V15.0001H105.096V20.0001H110.096ZM113.096 20.0001V25.0001H118.096V20.0001H113.096ZM113.096 17.0001V12.0001H108.096V17.0001H113.096ZM116.096 17.0001V22.0001H121.096V17.0001H116.096ZM116.096 14.0001V9.00012H111.096V14.0001H116.096ZM131.096 14.0001H136.096V9.00012H131.096V14.0001ZM131.096 17.0001V22.0001H136.096V17.0001H131.096ZM119.096 17.0001V12.0001H114.096V17.0001H119.096ZM119.096 20.0001V25.0001H124.096V20.0001H119.096ZM116.096 20.0001V15.0001H111.096V20.0001H116.096ZM116.096 29.0001H111.096V34.0001H116.096V29.0001ZM119.096 29.0001H124.096V24.0001H119.096V29.0001ZM119.096 32.0001H114.096V37.0001H119.096V32.0001ZM125.096 32.0001V37.0001H130.096V32.0001H125.096ZM125.096 26.0001H130.096V21.0001H125.096V26.0001ZM122.096 26.0001H117.096V31.0001H122.096V26.0001ZM122.096 23.0001V18.0001H117.096V23.0001H122.096ZM131.096 23.0001H136.096V18.0001H131.096V23.0001ZM131.096 35.0001V40.0001H136.096V35.0001H131.096ZM121.096 35.0001V32.0001H111.096V35.0001H121.096ZM116.096 27.0001H113.096V37.0001H116.096V27.0001ZM118.096 32.0001V29.0001H108.096V32.0001H118.096ZM113.096 24.0001H110.096V34.0001H113.096V24.0001ZM115.096 29.0001V20.0001H105.096V29.0001H115.096ZM110.096 25.0001H113.096V15.0001H110.096V25.0001ZM118.096 20.0001V17.0001H108.096V20.0001H118.096ZM113.096 22.0001H116.096V12.0001H113.096V22.0001ZM121.096 17.0001V14.0001H111.096V17.0001H121.096ZM116.096 19.0001H131.096V9.00012H116.096V19.0001ZM126.096 14.0001V17.0001H136.096V14.0001H126.096ZM131.096 12.0001H119.096V22.0001H131.096V12.0001ZM114.096 17.0001V20.0001H124.096V17.0001H114.096ZM119.096 15.0001H116.096V25.0001H119.096V15.0001ZM111.096 20.0001V29.0001H121.096V20.0001H111.096ZM116.096 34.0001H119.096V24.0001H116.096V34.0001ZM114.096 29.0001V32.0001H124.096V29.0001H114.096ZM119.096 37.0001H125.096V27.0001H119.096V37.0001ZM130.096 32.0001V26.0001H120.096V32.0001H130.096ZM125.096 21.0001H122.096V31.0001H125.096V21.0001ZM127.096 26.0001V23.0001H117.096V26.0001H127.096ZM122.096 28.0001H131.096V18.0001H122.096V28.0001ZM126.096 23.0001V35.0001H136.096V23.0001H126.096ZM131.096 30.0001H116.096V40.0001H131.096V30.0001ZM65.0962 59.0001H60.0962V64.0001H65.0962V59.0001ZM65.0962 56.0001H70.0962V51.0001H65.0962V56.0001ZM62.0962 56.0001H57.0962V61.0001H62.0962V56.0001ZM62.0962 41.0001V36.0001H57.0962V41.0001H62.0962ZM65.0962 41.0001V46.0001H70.0962V41.0001H65.0962ZM65.0962 38.0001V33.0001H60.0962V38.0001H65.0962ZM80.0962 38.0001H85.0962V33.0001H80.0962V38.0001ZM80.0962 41.0001H75.0962V46.0001H80.0962V41.0001ZM83.0962 41.0001H88.0962V36.0001H83.0962V41.0001ZM83.0962 56.0001V61.0001H88.0962V56.0001H83.0962ZM80.0962 56.0001V51.0001H75.0962V56.0001H80.0962ZM80.0962 59.0001V64.0001H85.0962V59.0001H80.0962ZM68.0962 56.0001H63.0962V61.0001H68.0962V56.0001ZM77.0962 56.0001V61.0001H82.0962V56.0001H77.0962ZM77.0962 41.0001H82.0962V36.0001H77.0962V41.0001ZM68.0962 41.0001V36.0001H63.0962V41.0001H68.0962ZM70.0962 59.0001V56.0001H60.0962V59.0001H70.0962ZM65.0962 51.0001H62.0962V61.0001H65.0962V51.0001ZM67.0962 56.0001V41.0001H57.0962V56.0001H67.0962ZM62.0962 46.0001H65.0962V36.0001H62.0962V46.0001ZM70.0962 41.0001V38.0001H60.0962V41.0001H70.0962ZM65.0962 43.0001H80.0962V33.0001H65.0962V43.0001ZM75.0962 38.0001V41.0001H85.0962V38.0001H75.0962ZM80.0962 46.0001H83.0962V36.0001H80.0962V46.0001ZM78.0962 41.0001V56.0001H88.0962V41.0001H78.0962ZM83.0962 51.0001H80.0962V61.0001H83.0962V51.0001ZM75.0962 56.0001V59.0001H85.0962V56.0001H75.0962ZM80.0962 54.0001H65.0962V64.0001H80.0962V54.0001ZM68.0962 61.0001H77.0962V51.0001H68.0962V61.0001ZM82.0962 56.0001V41.0001H72.0962V56.0001H82.0962ZM77.0962 36.0001H68.0962V46.0001H77.0962V36.0001ZM63.0962 41.0001V56.0001H73.0962V41.0001H63.0962ZM89.0962 59.0001H84.0962V64.0001H89.0962V59.0001ZM89.0962 56.0001H94.0962V51.0001H89.0962V56.0001ZM86.0962 56.0001H81.0962V61.0001H86.0962V56.0001ZM86.0962 38.0001V33.0001H81.0962V38.0001H86.0962ZM92.0962 38.0001H97.0962V33.0001H92.0962V38.0001ZM92.0962 56.0001H87.0962V61.0001H92.0962V56.0001ZM101.096 56.0001V61.0001H106.096V56.0001H101.096ZM101.096 38.0001V33.0001H96.0962V38.0001H101.096ZM107.096 38.0001H112.096V33.0001H107.096V38.0001ZM107.096 56.0001V61.0001H112.096V56.0001H107.096ZM104.096 56.0001V51.0001H99.0962V56.0001H104.096ZM104.096 59.0001V64.0001H109.096V59.0001H104.096ZM94.0962 59.0001V56.0001H84.0962V59.0001H94.0962ZM89.0962 51.0001H86.0962V61.0001H89.0962V51.0001ZM91.0962 56.0001V38.0001H81.0962V56.0001H91.0962ZM86.0962 43.0001H92.0962V33.0001H86.0962V43.0001ZM87.0962 38.0001V56.0001H97.0962V38.0001H87.0962ZM92.0962 61.0001H101.096V51.0001H92.0962V61.0001ZM106.096 56.0001V38.0001H96.0962V56.0001H106.096ZM101.096 43.0001H107.096V33.0001H101.096V43.0001ZM102.096 38.0001V56.0001H112.096V38.0001H102.096ZM107.096 51.0001H104.096V61.0001H107.096V51.0001ZM99.0962 56.0001V59.0001H109.096V56.0001H99.0962ZM104.096 54.0001H89.0962V64.0001H104.096V54.0001ZM119.096 59.0001H114.096V64.0001H119.096V59.0001ZM119.096 41.0001H124.096V36.0001H119.096V41.0001ZM113.096 41.0001H108.096V46.0001H113.096V41.0001ZM113.096 38.0001V33.0001H108.096V38.0001H113.096ZM131.096 38.0001H136.096V33.0001H131.096V38.0001ZM131.096 41.0001V46.0001H136.096V41.0001H131.096ZM125.096 41.0001V36.0001H120.096V41.0001H125.096ZM125.096 59.0001V64.0001H130.096V59.0001H125.096ZM124.096 59.0001V41.0001H114.096V59.0001H124.096ZM119.096 36.0001H113.096V46.0001H119.096V36.0001ZM118.096 41.0001V38.0001H108.096V41.0001H118.096ZM113.096 43.0001H131.096V33.0001H113.096V43.0001ZM126.096 38.0001V41.0001H136.096V38.0001H126.096ZM131.096 36.0001H125.096V46.0001H131.096V36.0001ZM120.096 41.0001V59.0001H130.096V41.0001H120.096ZM125.096 54.0001H119.096V64.0001H125.096V54.0001Z" fill="white" mask="url(#path-1-outside-1_2209_145)"/>
<g clip-path="url(#clip0_2209_145)">
<path fill-rule="evenodd" clip-rule="evenodd" d="M44.3532 49.2833C44.3474 50.9296 45.6774 52.2814 47.3235 52.3024L55.7543 52.4104C57.4004 52.4314 58.7396 51.1139 58.7453 49.4676C58.7511 47.8213 57.4211 46.4695 55.775 46.4485L50.3249 46.3787L50.3408 41.8014L55.7908 41.8712C57.4369 41.8922 58.7761 40.5747 58.7818 38.9284C58.7876 37.2821 57.4576 35.9303 55.8114 35.9093L50.3615 35.8395L50.3769 31.3969C52.3754 30.909 54.2687 29.8946 55.8376 28.351C60.5098 23.7542 60.5361 16.2044 55.896 11.4883C51.256 6.77217 43.7068 6.67558 39.0346 11.2724C34.3623 15.8693 34.3362 23.419 38.9762 28.1351C40.5343 29.7187 42.4204 30.7815 44.4155 31.3206L44.3898 38.7289L44.3897 38.7441L44.3897 38.7593L44.3532 49.2833ZM43.2353 15.542C40.8992 17.8405 40.8861 21.6153 43.2061 23.9734C45.5262 26.3315 49.3007 26.3798 51.6369 24.0814C53.9731 21.7829 53.9861 18.0081 51.6661 15.65C49.3461 13.2919 45.5716 13.2435 43.2353 15.542Z" fill="white"/>
</g>
<defs>
<clipPath id="clip0_2209_145">
<rect width="41.9278" height="41.538" fill="white" transform="matrix(0.701332 0.712835 0.712835 -0.701332 20 30)"/>
</clipPath>
</defs>
</svg>
