<svg width="118" height="63" viewBox="0 0 118 63" fill="none" xmlns="http://www.w3.org/2000/svg">
<mask id="path-1-outside-1_2209_758" maskUnits="userSpaceOnUse" x="5" y="0" width="104" height="55" fill="black">
<rect fill="white" x="5" width="104" height="55"/>
<path d="M22.7981 26V5H28.7981V8H31.7981V11H34.7981V14H37.7981V5H43.7981V26H37.7981V20H34.7981V17H31.7981V14H28.7981V26H22.7981ZM46.7981 26V5H67.7981V8H52.7981V14H64.7981V17H52.7981V23H67.7981V26H46.7981ZM73.7981 26V23H70.7981V5H76.7981V17H79.7981V5H82.7981V17H85.7981V5H91.7981V23H88.7981V26H85.7981V23H82.7981V20H79.7981V23H76.7981V26H73.7981ZM16.7981 50V47H13.7981V44H10.7981V35H13.7981V32H16.7981V29H28.7981V32H31.7981V35H25.7981V32H19.7981V35H16.7981V44H19.7981V47H25.7981V44H31.7981V47H28.7981V50H16.7981ZM34.7981 50V35H37.7981V32H40.7981V29H49.7981V32H52.7981V35H55.7981V50H49.7981V44H40.7981V50H34.7981ZM40.7981 41H49.7981V35H46.7981V32H43.7981V35H40.7981V41ZM58.7981 50V29H76.7981V32H79.7981V41H73.7981V44H76.7981V47H79.7981V50H70.7981V47H67.7981V44H64.7981V50H58.7981ZM64.7981 41H70.7981V38H73.7981V32H64.7981V41ZM82.7981 50V29H97.7981V32H100.798V35H103.798V44H100.798V47H97.7981V50H82.7981ZM88.7981 47H94.7981V44H97.7981V35H94.7981V32H88.7981V47Z"/>
</mask>
<path d="M22.7981 26V5H28.7981V8H31.7981V11H34.7981V14H37.7981V5H43.7981V26H37.7981V20H34.7981V17H31.7981V14H28.7981V26H22.7981ZM46.7981 26V5H67.7981V8H52.7981V14H64.7981V17H52.7981V23H67.7981V26H46.7981ZM73.7981 26V23H70.7981V5H76.7981V17H79.7981V5H82.7981V17H85.7981V5H91.7981V23H88.7981V26H85.7981V23H82.7981V20H79.7981V23H76.7981V26H73.7981ZM16.7981 50V47H13.7981V44H10.7981V35H13.7981V32H16.7981V29H28.7981V32H31.7981V35H25.7981V32H19.7981V35H16.7981V44H19.7981V47H25.7981V44H31.7981V47H28.7981V50H16.7981ZM34.7981 50V35H37.7981V32H40.7981V29H49.7981V32H52.7981V35H55.7981V50H49.7981V44H40.7981V50H34.7981ZM40.7981 41H49.7981V35H46.7981V32H43.7981V35H40.7981V41ZM58.7981 50V29H76.7981V32H79.7981V41H73.7981V44H76.7981V47H79.7981V50H70.7981V47H67.7981V44H64.7981V50H58.7981ZM64.7981 41H70.7981V38H73.7981V32H64.7981V41ZM82.7981 50V29H97.7981V32H100.798V35H103.798V44H100.798V47H97.7981V50H82.7981ZM88.7981 47H94.7981V44H97.7981V35H94.7981V32H88.7981V47Z" fill="#F9C943"/>
<path d="M22.7981 26H17.7981V31H22.7981V26ZM22.7981 5V0H17.7981V5H22.7981ZM28.7981 5H33.7981V0H28.7981V5ZM28.7981 8H23.7981V13H28.7981V8ZM31.7981 8H36.7981V3H31.7981V8ZM31.7981 11H26.7981V16H31.7981V11ZM34.7981 11H39.7981V6H34.7981V11ZM34.7981 14H29.7981V19H34.7981V14ZM37.7981 14V19H42.7981V14H37.7981ZM37.7981 5V0H32.7981V5H37.7981ZM43.7981 5H48.7981V0H43.7981V5ZM43.7981 26V31H48.7981V26H43.7981ZM37.7981 26H32.7981V31H37.7981V26ZM37.7981 20H42.7981V15H37.7981V20ZM34.7981 20H29.7981V25H34.7981V20ZM34.7981 17H39.7981V12H34.7981V17ZM31.7981 17H26.7981V22H31.7981V17ZM31.7981 14H36.7981V9H31.7981V14ZM28.7981 14V9H23.7981V14H28.7981ZM28.7981 26V31H33.7981V26H28.7981ZM27.7981 26V5H17.7981V26H27.7981ZM22.7981 10H28.7981V0H22.7981V10ZM23.7981 5V8H33.7981V5H23.7981ZM28.7981 13H31.7981V3H28.7981V13ZM26.7981 8V11H36.7981V8H26.7981ZM31.7981 16H34.7981V6H31.7981V16ZM29.7981 11V14H39.7981V11H29.7981ZM34.7981 19H37.7981V9H34.7981V19ZM42.7981 14V5H32.7981V14H42.7981ZM37.7981 10H43.7981V0H37.7981V10ZM38.7981 5V26H48.7981V5H38.7981ZM43.7981 21H37.7981V31H43.7981V21ZM42.7981 26V20H32.7981V26H42.7981ZM37.7981 15H34.7981V25H37.7981V15ZM39.7981 20V17H29.7981V20H39.7981ZM34.7981 12H31.7981V22H34.7981V12ZM36.7981 17V14H26.7981V17H36.7981ZM31.7981 9H28.7981V19H31.7981V9ZM23.7981 14V26H33.7981V14H23.7981ZM28.7981 21H22.7981V31H28.7981V21ZM46.7981 26H41.7981V31H46.7981V26ZM46.7981 5V0H41.7981V5H46.7981ZM67.7981 5H72.7981V0H67.7981V5ZM67.7981 8V13H72.7981V8H67.7981ZM52.7981 8V3H47.7981V8H52.7981ZM52.7981 14H47.7981V19H52.7981V14ZM64.7981 14H69.7981V9H64.7981V14ZM64.7981 17V22H69.7981V17H64.7981ZM52.7981 17V12H47.7981V17H52.7981ZM52.7981 23H47.7981V28H52.7981V23ZM67.7981 23H72.7981V18H67.7981V23ZM67.7981 26V31H72.7981V26H67.7981ZM51.7981 26V5H41.7981V26H51.7981ZM46.7981 10H67.7981V0H46.7981V10ZM62.7981 5V8H72.7981V5H62.7981ZM67.7981 3H52.7981V13H67.7981V3ZM47.7981 8V14H57.7981V8H47.7981ZM52.7981 19H64.7981V9H52.7981V19ZM59.7981 14V17H69.7981V14H59.7981ZM64.7981 12H52.7981V22H64.7981V12ZM47.7981 17V23H57.7981V17H47.7981ZM52.7981 28H67.7981V18H52.7981V28ZM62.7981 23V26H72.7981V23H62.7981ZM67.7981 21H46.7981V31H67.7981V21ZM73.7981 26H68.7981V31H73.7981V26ZM73.7981 23H78.7981V18H73.7981V23ZM70.7981 23H65.7981V28H70.7981V23ZM70.7981 5V0H65.7981V5H70.7981ZM76.7981 5H81.7981V0H76.7981V5ZM76.7981 17H71.7981V22H76.7981V17ZM79.7981 17V22H84.7981V17H79.7981ZM79.7981 5V0H74.7981V5H79.7981ZM82.7981 5H87.7981V0H82.7981V5ZM82.7981 17H77.7981V22H82.7981V17ZM85.7981 17V22H90.7981V17H85.7981ZM85.7981 5V0H80.7981V5H85.7981ZM91.7981 5H96.7981V0H91.7981V5ZM91.7981 23V28H96.7981V23H91.7981ZM88.7981 23V18H83.7981V23H88.7981ZM88.7981 26V31H93.7981V26H88.7981ZM85.7981 26H80.7981V31H85.7981V26ZM85.7981 23H90.7981V18H85.7981V23ZM82.7981 23H77.7981V28H82.7981V23ZM82.7981 20H87.7981V15H82.7981V20ZM79.7981 20V15H74.7981V20H79.7981ZM79.7981 23V28H84.7981V23H79.7981ZM76.7981 23V18H71.7981V23H76.7981ZM76.7981 26V31H81.7981V26H76.7981ZM78.7981 26V23H68.7981V26H78.7981ZM73.7981 18H70.7981V28H73.7981V18ZM75.7981 23V5H65.7981V23H75.7981ZM70.7981 10H76.7981V0H70.7981V10ZM71.7981 5V17H81.7981V5H71.7981ZM76.7981 22H79.7981V12H76.7981V22ZM84.7981 17V5H74.7981V17H84.7981ZM79.7981 10H82.7981V0H79.7981V10ZM77.7981 5V17H87.7981V5H77.7981ZM82.7981 22H85.7981V12H82.7981V22ZM90.7981 17V5H80.7981V17H90.7981ZM85.7981 10H91.7981V0H85.7981V10ZM86.7981 5V23H96.7981V5H86.7981ZM91.7981 18H88.7981V28H91.7981V18ZM83.7981 23V26H93.7981V23H83.7981ZM88.7981 21H85.7981V31H88.7981V21ZM90.7981 26V23H80.7981V26H90.7981ZM85.7981 18H82.7981V28H85.7981V18ZM87.7981 23V20H77.7981V23H87.7981ZM82.7981 15H79.7981V25H82.7981V15ZM74.7981 20V23H84.7981V20H74.7981ZM79.7981 18H76.7981V28H79.7981V18ZM71.7981 23V26H81.7981V23H71.7981ZM76.7981 21H73.7981V31H76.7981V21ZM16.7981 50H11.7981V55H16.7981V50ZM16.7981 47H21.7981V42H16.7981V47ZM13.7981 47H8.7981V52H13.7981V47ZM13.7981 44H18.7981V39H13.7981V44ZM10.7981 44H5.7981V49H10.7981V44ZM10.7981 35V30H5.7981V35H10.7981ZM13.7981 35V40H18.7981V35H13.7981ZM13.7981 32V27H8.7981V32H13.7981ZM16.7981 32V37H21.7981V32H16.7981ZM16.7981 29V24H11.7981V29H16.7981ZM28.7981 29H33.7981V24H28.7981V29ZM28.7981 32H23.7981V37H28.7981V32ZM31.7981 32H36.7981V27H31.7981V32ZM31.7981 35V40H36.7981V35H31.7981ZM25.7981 35H20.7981V40H25.7981V35ZM25.7981 32H30.7981V27H25.7981V32ZM19.7981 32V27H14.7981V32H19.7981ZM19.7981 35V40H24.7981V35H19.7981ZM16.7981 35V30H11.7981V35H16.7981ZM16.7981 44H11.7981V49H16.7981V44ZM19.7981 44H24.7981V39H19.7981V44ZM19.7981 47H14.7981V52H19.7981V47ZM25.7981 47V52H30.7981V47H25.7981ZM25.7981 44V39H20.7981V44H25.7981ZM31.7981 44H36.7981V39H31.7981V44ZM31.7981 47V52H36.7981V47H31.7981ZM28.7981 47V42H23.7981V47H28.7981ZM28.7981 50V55H33.7981V50H28.7981ZM21.7981 50V47H11.7981V50H21.7981ZM16.7981 42H13.7981V52H16.7981V42ZM18.7981 47V44H8.7981V47H18.7981ZM13.7981 39H10.7981V49H13.7981V39ZM15.7981 44V35H5.7981V44H15.7981ZM10.7981 40H13.7981V30H10.7981V40ZM18.7981 35V32H8.7981V35H18.7981ZM13.7981 37H16.7981V27H13.7981V37ZM21.7981 32V29H11.7981V32H21.7981ZM16.7981 34H28.7981V24H16.7981V34ZM23.7981 29V32H33.7981V29H23.7981ZM28.7981 37H31.7981V27H28.7981V37ZM26.7981 32V35H36.7981V32H26.7981ZM31.7981 30H25.7981V40H31.7981V30ZM30.7981 35V32H20.7981V35H30.7981ZM25.7981 27H19.7981V37H25.7981V27ZM14.7981 32V35H24.7981V32H14.7981ZM19.7981 30H16.7981V40H19.7981V30ZM11.7981 35V44H21.7981V35H11.7981ZM16.7981 49H19.7981V39H16.7981V49ZM14.7981 44V47H24.7981V44H14.7981ZM19.7981 52H25.7981V42H19.7981V52ZM30.7981 47V44H20.7981V47H30.7981ZM25.7981 49H31.7981V39H25.7981V49ZM26.7981 44V47H36.7981V44H26.7981ZM31.7981 42H28.7981V52H31.7981V42ZM23.7981 47V50H33.7981V47H23.7981ZM28.7981 45H16.7981V55H28.7981V45ZM34.7981 50H29.7981V55H34.7981V50ZM34.7981 35V30H29.7981V35H34.7981ZM37.7981 35V40H42.7981V35H37.7981ZM37.7981 32V27H32.7981V32H37.7981ZM40.7981 32V37H45.7981V32H40.7981ZM40.7981 29V24H35.7981V29H40.7981ZM49.7981 29H54.7981V24H49.7981V29ZM49.7981 32H44.7981V37H49.7981V32ZM52.7981 32H57.7981V27H52.7981V32ZM52.7981 35H47.7981V40H52.7981V35ZM55.7981 35H60.7981V30H55.7981V35ZM55.7981 50V55H60.7981V50H55.7981ZM49.7981 50H44.7981V55H49.7981V50ZM49.7981 44H54.7981V39H49.7981V44ZM40.7981 44V39H35.7981V44H40.7981ZM40.7981 50V55H45.7981V50H40.7981ZM40.7981 41H35.7981V46H40.7981V41ZM49.7981 41V46H54.7981V41H49.7981ZM49.7981 35H54.7981V30H49.7981V35ZM46.7981 35H41.7981V40H46.7981V35ZM46.7981 32H51.7981V27H46.7981V32ZM43.7981 32V27H38.7981V32H43.7981ZM43.7981 35V40H48.7981V35H43.7981ZM40.7981 35V30H35.7981V35H40.7981ZM39.7981 50V35H29.7981V50H39.7981ZM34.7981 40H37.7981V30H34.7981V40ZM42.7981 35V32H32.7981V35H42.7981ZM37.7981 37H40.7981V27H37.7981V37ZM45.7981 32V29H35.7981V32H45.7981ZM40.7981 34H49.7981V24H40.7981V34ZM44.7981 29V32H54.7981V29H44.7981ZM49.7981 37H52.7981V27H49.7981V37ZM47.7981 32V35H57.7981V32H47.7981ZM52.7981 40H55.7981V30H52.7981V40ZM50.7981 35V50H60.7981V35H50.7981ZM55.7981 45H49.7981V55H55.7981V45ZM54.7981 50V44H44.7981V50H54.7981ZM49.7981 39H40.7981V49H49.7981V39ZM35.7981 44V50H45.7981V44H35.7981ZM40.7981 45H34.7981V55H40.7981V45ZM40.7981 46H49.7981V36H40.7981V46ZM54.7981 41V35H44.7981V41H54.7981ZM49.7981 30H46.7981V40H49.7981V30ZM51.7981 35V32H41.7981V35H51.7981ZM46.7981 27H43.7981V37H46.7981V27ZM38.7981 32V35H48.7981V32H38.7981ZM43.7981 30H40.7981V40H43.7981V30ZM35.7981 35V41H45.7981V35H35.7981ZM58.7981 50H53.7981V55H58.7981V50ZM58.7981 29V24H53.7981V29H58.7981ZM76.7981 29H81.7981V24H76.7981V29ZM76.7981 32H71.7981V37H76.7981V32ZM79.7981 32H84.7981V27H79.7981V32ZM79.7981 41V46H84.7981V41H79.7981ZM73.7981 41V36H68.7981V41H73.7981ZM73.7981 44H68.7981V49H73.7981V44ZM76.7981 44H81.7981V39H76.7981V44ZM76.7981 47H71.7981V52H76.7981V47ZM79.7981 47H84.7981V42H79.7981V47ZM79.7981 50V55H84.7981V50H79.7981ZM70.7981 50H65.7981V55H70.7981V50ZM70.7981 47H75.7981V42H70.7981V47ZM67.7981 47H62.7981V52H67.7981V47ZM67.7981 44H72.7981V39H67.7981V44ZM64.7981 44V39H59.7981V44H64.7981ZM64.7981 50V55H69.7981V50H64.7981ZM64.7981 41H59.7981V46H64.7981V41ZM70.7981 41V46H75.7981V41H70.7981ZM70.7981 38V33H65.7981V38H70.7981ZM73.7981 38V43H78.7981V38H73.7981ZM73.7981 32H78.7981V27H73.7981V32ZM64.7981 32V27H59.7981V32H64.7981ZM63.7981 50V29H53.7981V50H63.7981ZM58.7981 34H76.7981V24H58.7981V34ZM71.7981 29V32H81.7981V29H71.7981ZM76.7981 37H79.7981V27H76.7981V37ZM74.7981 32V41H84.7981V32H74.7981ZM79.7981 36H73.7981V46H79.7981V36ZM68.7981 41V44H78.7981V41H68.7981ZM73.7981 49H76.7981V39H73.7981V49ZM71.7981 44V47H81.7981V44H71.7981ZM76.7981 52H79.7981V42H76.7981V52ZM74.7981 47V50H84.7981V47H74.7981ZM79.7981 45H70.7981V55H79.7981V45ZM75.7981 50V47H65.7981V50H75.7981ZM70.7981 42H67.7981V52H70.7981V42ZM72.7981 47V44H62.7981V47H72.7981ZM67.7981 39H64.7981V49H67.7981V39ZM59.7981 44V50H69.7981V44H59.7981ZM64.7981 45H58.7981V55H64.7981V45ZM64.7981 46H70.7981V36H64.7981V46ZM75.7981 41V38H65.7981V41H75.7981ZM70.7981 43H73.7981V33H70.7981V43ZM78.7981 38V32H68.7981V38H78.7981ZM73.7981 27H64.7981V37H73.7981V27ZM59.7981 32V41H69.7981V32H59.7981ZM82.7981 50H77.7981V55H82.7981V50ZM82.7981 29V24H77.7981V29H82.7981ZM97.7981 29H102.798V24H97.7981V29ZM97.7981 32H92.7981V37H97.7981V32ZM100.798 32H105.798V27H100.798V32ZM100.798 35H95.7981V40H100.798V35ZM103.798 35H108.798V30H103.798V35ZM103.798 44V49H108.798V44H103.798ZM100.798 44V39H95.7981V44H100.798ZM100.798 47V52H105.798V47H100.798ZM97.7981 47V42H92.7981V47H97.7981ZM97.7981 50V55H102.798V50H97.7981ZM88.7981 47H83.7981V52H88.7981V47ZM94.7981 47V52H99.7981V47H94.7981ZM94.7981 44V39H89.7981V44H94.7981ZM97.7981 44V49H102.798V44H97.7981ZM97.7981 35H102.798V30H97.7981V35ZM94.7981 35H89.7981V40H94.7981V35ZM94.7981 32H99.7981V27H94.7981V32ZM88.7981 32V27H83.7981V32H88.7981ZM87.7981 50V29H77.7981V50H87.7981ZM82.7981 34H97.7981V24H82.7981V34ZM92.7981 29V32H102.798V29H92.7981ZM97.7981 37H100.798V27H97.7981V37ZM95.7981 32V35H105.798V32H95.7981ZM100.798 40H103.798V30H100.798V40ZM98.7981 35V44H108.798V35H98.7981ZM103.798 39H100.798V49H103.798V39ZM95.7981 44V47H105.798V44H95.7981ZM100.798 42H97.7981V52H100.798V42ZM92.7981 47V50H102.798V47H92.7981ZM97.7981 45H82.7981V55H97.7981V45ZM88.7981 52H94.7981V42H88.7981V52ZM99.7981 47V44H89.7981V47H99.7981ZM94.7981 49H97.7981V39H94.7981V49ZM102.798 44V35H92.7981V44H102.798ZM97.7981 30H94.7981V40H97.7981V30ZM99.7981 35V32H89.7981V35H99.7981ZM94.7981 27H88.7981V37H94.7981V27ZM83.7981 32V47H93.7981V32H83.7981Z" fill="white" mask="url(#path-1-outside-1_2209_758)"/>
</svg>
