<svg width="251" height="76" viewBox="0 0 251 76" fill="none" xmlns="http://www.w3.org/2000/svg">
<mask id="path-1-outside-1_2209_110" maskUnits="userSpaceOnUse" x="0" y="0" width="251" height="76" fill="black">
<rect fill="white" width="251" height="76"/>
<path d="M8 43V8H18V13H23V18H28V23H33V8H43V43H33V33H28V28H23V23H18V43H8ZM53 43V38H63V13H53V8H83V13H73V38H83V43H53ZM88 43V8H98V23H103V18H108V13H113V8H123V13H118V18H113V23H108V28H113V33H118V38H123V43H108V38H103V33H98V43H88ZM133 43V38H128V13H133V8H158V13H163V38H158V43H133ZM138 38H153V13H138V38ZM173 43V8H183V38H203V43H173ZM208 43V18H213V13H218V8H233V13H238V18H243V43H233V33H218V43H208ZM218 28H233V18H228V13H223V18H218V28ZM10.6875 67.3125V64.625H8V61.9375H13.375V64.625H21.4375V59.25H10.6875V56.5625H8V51.1875H10.6875V48.5H24.125V51.1875H26.8125V53.875H21.4375V51.1875H13.375V56.5625H24.125V59.25H26.8125V64.625H24.125V67.3125H10.6875ZM37.5625 67.3125V51.1875H32.1875V48.5H48.3125V51.1875H42.9375V67.3125H37.5625ZM51 67.3125V53.875H53.6875V51.1875H56.375V48.5H64.4375V51.1875H67.125V53.875H69.8125V67.3125H64.4375V61.9375H56.375V67.3125H51ZM56.375 59.25H64.4375V53.875H61.75V51.1875H59.0625V53.875H56.375V59.25ZM72.5 67.3125V48.5H88.625V51.1875H91.3125V59.25H85.9375V61.9375H88.625V64.625H91.3125V67.3125H83.25V64.625H80.5625V61.9375H77.875V67.3125H72.5ZM77.875 59.25H83.25V56.5625H85.9375V51.1875H77.875V59.25ZM102.063 67.3125V51.1875H96.6875V48.5H112.813V51.1875H107.438V67.3125H102.063ZM115.5 67.3125V48.5H131.625V51.1875H134.313V59.25H128.938V61.9375H131.625V64.625H134.313V67.3125H126.25V64.625H123.563V61.9375H120.875V67.3125H115.5ZM120.875 59.25H126.25V56.5625H128.938V51.1875H120.875V59.25ZM137 67.3125V53.875H139.688V51.1875H142.375V48.5H150.438V51.1875H153.125V53.875H155.813V67.3125H150.438V61.9375H142.375V67.3125H137ZM142.375 59.25H150.438V53.875H147.75V51.1875H145.063V53.875H142.375V59.25ZM163.875 67.3125V64.625H161.188V61.9375H158.5V53.875H161.188V51.1875H163.875V48.5H174.625V51.1875H177.313V53.875H171.938V51.1875H166.563V53.875H163.875V61.9375H166.563V64.625H171.938V61.9375H177.313V64.625H174.625V67.3125H163.875ZM180 67.3125V48.5H185.375V56.5625H188.063V53.875H190.75V51.1875H193.438V48.5H198.813V51.1875H196.125V53.875H193.438V56.5625H190.75V59.25H193.438V61.9375H196.125V64.625H198.813V67.3125H190.75V64.625H188.063V61.9375H185.375V67.3125H180ZM201.5 67.3125V48.5H220.313V51.1875H206.875V56.5625H217.625V59.25H206.875V64.625H220.313V67.3125H201.5ZM223 67.3125V48.5H239.125V51.1875H241.813V59.25H236.438V61.9375H239.125V64.625H241.813V67.3125H233.75V64.625H231.063V61.9375H228.375V67.3125H223ZM228.375 59.25H233.75V56.5625H236.438V51.1875H228.375V59.25Z"/>
</mask>
<path d="M8 43V8H18V13H23V18H28V23H33V8H43V43H33V33H28V28H23V23H18V43H8ZM53 43V38H63V13H53V8H83V13H73V38H83V43H53ZM88 43V8H98V23H103V18H108V13H113V8H123V13H118V18H113V23H108V28H113V33H118V38H123V43H108V38H103V33H98V43H88ZM133 43V38H128V13H133V8H158V13H163V38H158V43H133ZM138 38H153V13H138V38ZM173 43V8H183V38H203V43H173ZM208 43V18H213V13H218V8H233V13H238V18H243V43H233V33H218V43H208ZM218 28H233V18H228V13H223V18H218V28ZM10.6875 67.3125V64.625H8V61.9375H13.375V64.625H21.4375V59.25H10.6875V56.5625H8V51.1875H10.6875V48.5H24.125V51.1875H26.8125V53.875H21.4375V51.1875H13.375V56.5625H24.125V59.25H26.8125V64.625H24.125V67.3125H10.6875ZM37.5625 67.3125V51.1875H32.1875V48.5H48.3125V51.1875H42.9375V67.3125H37.5625ZM51 67.3125V53.875H53.6875V51.1875H56.375V48.5H64.4375V51.1875H67.125V53.875H69.8125V67.3125H64.4375V61.9375H56.375V67.3125H51ZM56.375 59.25H64.4375V53.875H61.75V51.1875H59.0625V53.875H56.375V59.25ZM72.5 67.3125V48.5H88.625V51.1875H91.3125V59.25H85.9375V61.9375H88.625V64.625H91.3125V67.3125H83.25V64.625H80.5625V61.9375H77.875V67.3125H72.5ZM77.875 59.25H83.25V56.5625H85.9375V51.1875H77.875V59.25ZM102.063 67.3125V51.1875H96.6875V48.5H112.813V51.1875H107.438V67.3125H102.063ZM115.5 67.3125V48.5H131.625V51.1875H134.313V59.25H128.938V61.9375H131.625V64.625H134.313V67.3125H126.25V64.625H123.563V61.9375H120.875V67.3125H115.5ZM120.875 59.25H126.25V56.5625H128.938V51.1875H120.875V59.25ZM137 67.3125V53.875H139.688V51.1875H142.375V48.5H150.438V51.1875H153.125V53.875H155.813V67.3125H150.438V61.9375H142.375V67.3125H137ZM142.375 59.25H150.438V53.875H147.75V51.1875H145.063V53.875H142.375V59.25ZM163.875 67.3125V64.625H161.188V61.9375H158.5V53.875H161.188V51.1875H163.875V48.5H174.625V51.1875H177.313V53.875H171.938V51.1875H166.563V53.875H163.875V61.9375H166.563V64.625H171.938V61.9375H177.313V64.625H174.625V67.3125H163.875ZM180 67.3125V48.5H185.375V56.5625H188.063V53.875H190.75V51.1875H193.438V48.5H198.813V51.1875H196.125V53.875H193.438V56.5625H190.75V59.25H193.438V61.9375H196.125V64.625H198.813V67.3125H190.75V64.625H188.063V61.9375H185.375V67.3125H180ZM201.5 67.3125V48.5H220.313V51.1875H206.875V56.5625H217.625V59.25H206.875V64.625H220.313V67.3125H201.5ZM223 67.3125V48.5H239.125V51.1875H241.813V59.25H236.438V61.9375H239.125V64.625H241.813V67.3125H233.75V64.625H231.063V61.9375H228.375V67.3125H223ZM228.375 59.25H233.75V56.5625H236.438V51.1875H228.375V59.25Z" fill="#FDBA00"/>
<path d="M8 43H0V51H8V43ZM8 8V0H0V8H8ZM18 8H26V0H18V8ZM18 13H10V21H18V13ZM23 13H31V5H23V13ZM23 18H15V26H23V18ZM28 18H36V10H28V18ZM28 23H20V31H28V23ZM33 23V31H41V23H33ZM33 8V0H25V8H33ZM43 8H51V0H43V8ZM43 43V51H51V43H43ZM33 43H25V51H33V43ZM33 33H41V25H33V33ZM28 33H20V41H28V33ZM28 28H36V20H28V28ZM23 28H15V36H23V28ZM23 23H31V15H23V23ZM18 23V15H10V23H18ZM18 43V51H26V43H18ZM16 43V8H0V43H16ZM8 16H18V0H8V16ZM10 8V13H26V8H10ZM18 21H23V5H18V21ZM15 13V18H31V13H15ZM23 26H28V10H23V26ZM20 18V23H36V18H20ZM28 31H33V15H28V31ZM41 23V8H25V23H41ZM33 16H43V0H33V16ZM35 8V43H51V8H35ZM43 35H33V51H43V35ZM41 43V33H25V43H41ZM33 25H28V41H33V25ZM36 33V28H20V33H36ZM28 20H23V36H28V20ZM31 28V23H15V28H31ZM23 15H18V31H23V15ZM10 23V43H26V23H10ZM18 35H8V51H18V35ZM53 43H45V51H53V43ZM53 38V30H45V38H53ZM63 38V46H71V38H63ZM63 13H71V5H63V13ZM53 13H45V21H53V13ZM53 8V0H45V8H53ZM83 8H91V0H83V8ZM83 13V21H91V13H83ZM73 13V5H65V13H73ZM73 38H65V46H73V38ZM83 38H91V30H83V38ZM83 43V51H91V43H83ZM61 43V38H45V43H61ZM53 46H63V30H53V46ZM71 38V13H55V38H71ZM63 5H53V21H63V5ZM61 13V8H45V13H61ZM53 16H83V0H53V16ZM75 8V13H91V8H75ZM83 5H73V21H83V5ZM65 13V38H81V13H65ZM73 46H83V30H73V46ZM75 38V43H91V38H75ZM83 35H53V51H83V35ZM88 43H80V51H88V43ZM88 8V0H80V8H88ZM98 8H106V0H98V8ZM98 23H90V31H98V23ZM103 23V31H111V23H103ZM103 18V10H95V18H103ZM108 18V26H116V18H108ZM108 13V5H100V13H108ZM113 13V21H121V13H113ZM113 8V0H105V8H113ZM123 8H131V0H123V8ZM123 13V21H131V13H123ZM118 13V5H110V13H118ZM118 18V26H126V18H118ZM113 18V10H105V18H113ZM113 23V31H121V23H113ZM108 23V15H100V23H108ZM108 28H100V36H108V28ZM113 28H121V20H113V28ZM113 33H105V41H113V33ZM118 33H126V25H118V33ZM118 38H110V46H118V38ZM123 38H131V30H123V38ZM123 43V51H131V43H123ZM108 43H100V51H108V43ZM108 38H116V30H108V38ZM103 38H95V46H103V38ZM103 33H111V25H103V33ZM98 33V25H90V33H98ZM98 43V51H106V43H98ZM96 43V8H80V43H96ZM88 16H98V0H88V16ZM90 8V23H106V8H90ZM98 31H103V15H98V31ZM111 23V18H95V23H111ZM103 26H108V10H103V26ZM116 18V13H100V18H116ZM108 21H113V5H108V21ZM121 13V8H105V13H121ZM113 16H123V0H113V16ZM115 8V13H131V8H115ZM123 5H118V21H123V5ZM110 13V18H126V13H110ZM118 10H113V26H118V10ZM105 18V23H121V18H105ZM113 15H108V31H113V15ZM100 23V28H116V23H100ZM108 36H113V20H108V36ZM105 28V33H121V28H105ZM113 41H118V25H113V41ZM110 33V38H126V33H110ZM118 46H123V30H118V46ZM115 38V43H131V38H115ZM123 35H108V51H123V35ZM116 43V38H100V43H116ZM108 30H103V46H108V30ZM111 38V33H95V38H111ZM103 25H98V41H103V25ZM90 33V43H106V33H90ZM98 35H88V51H98V35ZM133 43H125V51H133V43ZM133 38H141V30H133V38ZM128 38H120V46H128V38ZM128 13V5H120V13H128ZM133 13V21H141V13H133ZM133 8V0H125V8H133ZM158 8H166V0H158V8ZM158 13H150V21H158V13ZM163 13H171V5H163V13ZM163 38V46H171V38H163ZM158 38V30H150V38H158ZM158 43V51H166V43H158ZM138 38H130V46H138V38ZM153 38V46H161V38H153ZM153 13H161V5H153V13ZM138 13V5H130V13H138ZM141 43V38H125V43H141ZM133 30H128V46H133V30ZM136 38V13H120V38H136ZM128 21H133V5H128V21ZM141 13V8H125V13H141ZM133 16H158V0H133V16ZM150 8V13H166V8H150ZM158 21H163V5H158V21ZM155 13V38H171V13H155ZM163 30H158V46H163V30ZM150 38V43H166V38H150ZM158 35H133V51H158V35ZM138 46H153V30H138V46ZM161 38V13H145V38H161ZM153 5H138V21H153V5ZM130 13V38H146V13H130ZM173 43H165V51H173V43ZM173 8V0H165V8H173ZM183 8H191V0H183V8ZM183 38H175V46H183V38ZM203 38H211V30H203V38ZM203 43V51H211V43H203ZM181 43V8H165V43H181ZM173 16H183V0H173V16ZM175 8V38H191V8H175ZM183 46H203V30H183V46ZM195 38V43H211V38H195ZM203 35H173V51H203V35ZM208 43H200V51H208V43ZM208 18V10H200V18H208ZM213 18V26H221V18H213ZM213 13V5H205V13H213ZM218 13V21H226V13H218ZM218 8V0H210V8H218ZM233 8H241V0H233V8ZM233 13H225V21H233V13ZM238 13H246V5H238V13ZM238 18H230V26H238V18ZM243 18H251V10H243V18ZM243 43V51H251V43H243ZM233 43H225V51H233V43ZM233 33H241V25H233V33ZM218 33V25H210V33H218ZM218 43V51H226V43H218ZM218 28H210V36H218V28ZM233 28V36H241V28H233ZM233 18H241V10H233V18ZM228 18H220V26H228V18ZM228 13H236V5H228V13ZM223 13V5H215V13H223ZM223 18V26H231V18H223ZM218 18V10H210V18H218ZM216 43V18H200V43H216ZM208 26H213V10H208V26ZM221 18V13H205V18H221ZM213 21H218V5H213V21ZM226 13V8H210V13H226ZM218 16H233V0H218V16ZM225 8V13H241V8H225ZM233 21H238V5H233V21ZM230 13V18H246V13H230ZM238 26H243V10H238V26ZM235 18V43H251V18H235ZM243 35H233V51H243V35ZM241 43V33H225V43H241ZM233 25H218V41H233V25ZM210 33V43H226V33H210ZM218 35H208V51H218V35ZM218 36H233V20H218V36ZM241 28V18H225V28H241ZM233 10H228V26H233V10ZM236 18V13H220V18H236ZM228 5H223V21H228V5ZM215 13V18H231V13H215ZM223 10H218V26H223V10ZM210 18V28H226V18H210ZM10.6875 67.3125H2.6875V75.3125H10.6875V67.3125ZM10.6875 64.625H18.6875V56.625H10.6875V64.625ZM8 64.625H0V72.625H8V64.625ZM8 61.9375V53.9375H0V61.9375H8ZM13.375 61.9375H21.375V53.9375H13.375V61.9375ZM13.375 64.625H5.375V72.625H13.375V64.625ZM21.4375 64.625V72.625H29.4375V64.625H21.4375ZM21.4375 59.25H29.4375V51.25H21.4375V59.25ZM10.6875 59.25H2.6875V67.25H10.6875V59.25ZM10.6875 56.5625H18.6875V48.5625H10.6875V56.5625ZM8 56.5625H0V64.5625H8V56.5625ZM8 51.1875V43.1875H0V51.1875H8ZM10.6875 51.1875V59.1875H18.6875V51.1875H10.6875ZM10.6875 48.5V40.5H2.6875V48.5H10.6875ZM24.125 48.5H32.125V40.5H24.125V48.5ZM24.125 51.1875H16.125V59.1875H24.125V51.1875ZM26.8125 51.1875H34.8125V43.1875H26.8125V51.1875ZM26.8125 53.875V61.875H34.8125V53.875H26.8125ZM21.4375 53.875H13.4375V61.875H21.4375V53.875ZM21.4375 51.1875H29.4375V43.1875H21.4375V51.1875ZM13.375 51.1875V43.1875H5.375V51.1875H13.375ZM13.375 56.5625H5.375V64.5625H13.375V56.5625ZM24.125 56.5625H32.125V48.5625H24.125V56.5625ZM24.125 59.25H16.125V67.25H24.125V59.25ZM26.8125 59.25H34.8125V51.25H26.8125V59.25ZM26.8125 64.625V72.625H34.8125V64.625H26.8125ZM24.125 64.625V56.625H16.125V64.625H24.125ZM24.125 67.3125V75.3125H32.125V67.3125H24.125ZM18.6875 67.3125V64.625H2.6875V67.3125H18.6875ZM10.6875 56.625H8V72.625H10.6875V56.625ZM16 64.625V61.9375H0V64.625H16ZM8 69.9375H13.375V53.9375H8V69.9375ZM5.375 61.9375V64.625H21.375V61.9375H5.375ZM13.375 72.625H21.4375V56.625H13.375V72.625ZM29.4375 64.625V59.25H13.4375V64.625H29.4375ZM21.4375 51.25H10.6875V67.25H21.4375V51.25ZM18.6875 59.25V56.5625H2.6875V59.25H18.6875ZM10.6875 48.5625H8V64.5625H10.6875V48.5625ZM16 56.5625V51.1875H0V56.5625H16ZM8 59.1875H10.6875V43.1875H8V59.1875ZM18.6875 51.1875V48.5H2.6875V51.1875H18.6875ZM10.6875 56.5H24.125V40.5H10.6875V56.5ZM16.125 48.5V51.1875H32.125V48.5H16.125ZM24.125 59.1875H26.8125V43.1875H24.125V59.1875ZM18.8125 51.1875V53.875H34.8125V51.1875H18.8125ZM26.8125 45.875H21.4375V61.875H26.8125V45.875ZM29.4375 53.875V51.1875H13.4375V53.875H29.4375ZM21.4375 43.1875H13.375V59.1875H21.4375V43.1875ZM5.375 51.1875V56.5625H21.375V51.1875H5.375ZM13.375 64.5625H24.125V48.5625H13.375V64.5625ZM16.125 56.5625V59.25H32.125V56.5625H16.125ZM24.125 67.25H26.8125V51.25H24.125V67.25ZM18.8125 59.25V64.625H34.8125V59.25H18.8125ZM26.8125 56.625H24.125V72.625H26.8125V56.625ZM16.125 64.625V67.3125H32.125V64.625H16.125ZM24.125 59.3125H10.6875V75.3125H24.125V59.3125ZM37.5625 67.3125H29.5625V75.3125H37.5625V67.3125ZM37.5625 51.1875H45.5625V43.1875H37.5625V51.1875ZM32.1875 51.1875H24.1875V59.1875H32.1875V51.1875ZM32.1875 48.5V40.5H24.1875V48.5H32.1875ZM48.3125 48.5H56.3125V40.5H48.3125V48.5ZM48.3125 51.1875V59.1875H56.3125V51.1875H48.3125ZM42.9375 51.1875V43.1875H34.9375V51.1875H42.9375ZM42.9375 67.3125V75.3125H50.9375V67.3125H42.9375ZM45.5625 67.3125V51.1875H29.5625V67.3125H45.5625ZM37.5625 43.1875H32.1875V59.1875H37.5625V43.1875ZM40.1875 51.1875V48.5H24.1875V51.1875H40.1875ZM32.1875 56.5H48.3125V40.5H32.1875V56.5ZM40.3125 48.5V51.1875H56.3125V48.5H40.3125ZM48.3125 43.1875H42.9375V59.1875H48.3125V43.1875ZM34.9375 51.1875V67.3125H50.9375V51.1875H34.9375ZM42.9375 59.3125H37.5625V75.3125H42.9375V59.3125ZM51 67.3125H43V75.3125H51V67.3125ZM51 53.875V45.875H43V53.875H51ZM53.6875 53.875V61.875H61.6875V53.875H53.6875ZM53.6875 51.1875V43.1875H45.6875V51.1875H53.6875ZM56.375 51.1875V59.1875H64.375V51.1875H56.375ZM56.375 48.5V40.5H48.375V48.5H56.375ZM64.4375 48.5H72.4375V40.5H64.4375V48.5ZM64.4375 51.1875H56.4375V59.1875H64.4375V51.1875ZM67.125 51.1875H75.125V43.1875H67.125V51.1875ZM67.125 53.875H59.125V61.875H67.125V53.875ZM69.8125 53.875H77.8125V45.875H69.8125V53.875ZM69.8125 67.3125V75.3125H77.8125V67.3125H69.8125ZM64.4375 67.3125H56.4375V75.3125H64.4375V67.3125ZM64.4375 61.9375H72.4375V53.9375H64.4375V61.9375ZM56.375 61.9375V53.9375H48.375V61.9375H56.375ZM56.375 67.3125V75.3125H64.375V67.3125H56.375ZM56.375 59.25H48.375V67.25H56.375V59.25ZM64.4375 59.25V67.25H72.4375V59.25H64.4375ZM64.4375 53.875H72.4375V45.875H64.4375V53.875ZM61.75 53.875H53.75V61.875H61.75V53.875ZM61.75 51.1875H69.75V43.1875H61.75V51.1875ZM59.0625 51.1875V43.1875H51.0625V51.1875H59.0625ZM59.0625 53.875V61.875H67.0625V53.875H59.0625ZM56.375 53.875V45.875H48.375V53.875H56.375ZM59 67.3125V53.875H43V67.3125H59ZM51 61.875H53.6875V45.875H51V61.875ZM61.6875 53.875V51.1875H45.6875V53.875H61.6875ZM53.6875 59.1875H56.375V43.1875H53.6875V59.1875ZM64.375 51.1875V48.5H48.375V51.1875H64.375ZM56.375 56.5H64.4375V40.5H56.375V56.5ZM56.4375 48.5V51.1875H72.4375V48.5H56.4375ZM64.4375 59.1875H67.125V43.1875H64.4375V59.1875ZM59.125 51.1875V53.875H75.125V51.1875H59.125ZM67.125 61.875H69.8125V45.875H67.125V61.875ZM61.8125 53.875V67.3125H77.8125V53.875H61.8125ZM69.8125 59.3125H64.4375V75.3125H69.8125V59.3125ZM72.4375 67.3125V61.9375H56.4375V67.3125H72.4375ZM64.4375 53.9375H56.375V69.9375H64.4375V53.9375ZM48.375 61.9375V67.3125H64.375V61.9375H48.375ZM56.375 59.3125H51V75.3125H56.375V59.3125ZM56.375 67.25H64.4375V51.25H56.375V67.25ZM72.4375 59.25V53.875H56.4375V59.25H72.4375ZM64.4375 45.875H61.75V61.875H64.4375V45.875ZM69.75 53.875V51.1875H53.75V53.875H69.75ZM61.75 43.1875H59.0625V59.1875H61.75V43.1875ZM51.0625 51.1875V53.875H67.0625V51.1875H51.0625ZM59.0625 45.875H56.375V61.875H59.0625V45.875ZM48.375 53.875V59.25H64.375V53.875H48.375ZM72.5 67.3125H64.5V75.3125H72.5V67.3125ZM72.5 48.5V40.5H64.5V48.5H72.5ZM88.625 48.5H96.625V40.5H88.625V48.5ZM88.625 51.1875H80.625V59.1875H88.625V51.1875ZM91.3125 51.1875H99.3125V43.1875H91.3125V51.1875ZM91.3125 59.25V67.25H99.3125V59.25H91.3125ZM85.9375 59.25V51.25H77.9375V59.25H85.9375ZM85.9375 61.9375H77.9375V69.9375H85.9375V61.9375ZM88.625 61.9375H96.625V53.9375H88.625V61.9375ZM88.625 64.625H80.625V72.625H88.625V64.625ZM91.3125 64.625H99.3125V56.625H91.3125V64.625ZM91.3125 67.3125V75.3125H99.3125V67.3125H91.3125ZM83.25 67.3125H75.25V75.3125H83.25V67.3125ZM83.25 64.625H91.25V56.625H83.25V64.625ZM80.5625 64.625H72.5625V72.625H80.5625V64.625ZM80.5625 61.9375H88.5625V53.9375H80.5625V61.9375ZM77.875 61.9375V53.9375H69.875V61.9375H77.875ZM77.875 67.3125V75.3125H85.875V67.3125H77.875ZM77.875 59.25H69.875V67.25H77.875V59.25ZM83.25 59.25V67.25H91.25V59.25H83.25ZM83.25 56.5625V48.5625H75.25V56.5625H83.25ZM85.9375 56.5625V64.5625H93.9375V56.5625H85.9375ZM85.9375 51.1875H93.9375V43.1875H85.9375V51.1875ZM77.875 51.1875V43.1875H69.875V51.1875H77.875ZM80.5 67.3125V48.5H64.5V67.3125H80.5ZM72.5 56.5H88.625V40.5H72.5V56.5ZM80.625 48.5V51.1875H96.625V48.5H80.625ZM88.625 59.1875H91.3125V43.1875H88.625V59.1875ZM83.3125 51.1875V59.25H99.3125V51.1875H83.3125ZM91.3125 51.25H85.9375V67.25H91.3125V51.25ZM77.9375 59.25V61.9375H93.9375V59.25H77.9375ZM85.9375 69.9375H88.625V53.9375H85.9375V69.9375ZM80.625 61.9375V64.625H96.625V61.9375H80.625ZM88.625 72.625H91.3125V56.625H88.625V72.625ZM83.3125 64.625V67.3125H99.3125V64.625H83.3125ZM91.3125 59.3125H83.25V75.3125H91.3125V59.3125ZM91.25 67.3125V64.625H75.25V67.3125H91.25ZM83.25 56.625H80.5625V72.625H83.25V56.625ZM88.5625 64.625V61.9375H72.5625V64.625H88.5625ZM80.5625 53.9375H77.875V69.9375H80.5625V53.9375ZM69.875 61.9375V67.3125H85.875V61.9375H69.875ZM77.875 59.3125H72.5V75.3125H77.875V59.3125ZM77.875 67.25H83.25V51.25H77.875V67.25ZM91.25 59.25V56.5625H75.25V59.25H91.25ZM83.25 64.5625H85.9375V48.5625H83.25V64.5625ZM93.9375 56.5625V51.1875H77.9375V56.5625H93.9375ZM85.9375 43.1875H77.875V59.1875H85.9375V43.1875ZM69.875 51.1875V59.25H85.875V51.1875H69.875ZM102.062 67.3125H94.0625V75.3125H102.062V67.3125ZM102.062 51.1875H110.062V43.1875H102.062V51.1875ZM96.6875 51.1875H88.6875V59.1875H96.6875V51.1875ZM96.6875 48.5V40.5H88.6875V48.5H96.6875ZM112.812 48.5H120.812V40.5H112.812V48.5ZM112.812 51.1875V59.1875H120.812V51.1875H112.812ZM107.438 51.1875V43.1875H99.4375V51.1875H107.438ZM107.438 67.3125V75.3125H115.438V67.3125H107.438ZM110.062 67.3125V51.1875H94.0625V67.3125H110.062ZM102.062 43.1875H96.6875V59.1875H102.062V43.1875ZM104.688 51.1875V48.5H88.6875V51.1875H104.688ZM96.6875 56.5H112.812V40.5H96.6875V56.5ZM104.812 48.5V51.1875H120.812V48.5H104.812ZM112.812 43.1875H107.438V59.1875H112.812V43.1875ZM99.4375 51.1875V67.3125H115.438V51.1875H99.4375ZM107.438 59.3125H102.062V75.3125H107.438V59.3125ZM115.5 67.3125H107.5V75.3125H115.5V67.3125ZM115.5 48.5V40.5H107.5V48.5H115.5ZM131.625 48.5H139.625V40.5H131.625V48.5ZM131.625 51.1875H123.625V59.1875H131.625V51.1875ZM134.312 51.1875H142.312V43.1875H134.312V51.1875ZM134.312 59.25V67.25H142.312V59.25H134.312ZM128.938 59.25V51.25H120.938V59.25H128.938ZM128.938 61.9375H120.938V69.9375H128.938V61.9375ZM131.625 61.9375H139.625V53.9375H131.625V61.9375ZM131.625 64.625H123.625V72.625H131.625V64.625ZM134.312 64.625H142.312V56.625H134.312V64.625ZM134.312 67.3125V75.3125H142.312V67.3125H134.312ZM126.25 67.3125H118.25V75.3125H126.25V67.3125ZM126.25 64.625H134.25V56.625H126.25V64.625ZM123.562 64.625H115.562V72.625H123.562V64.625ZM123.562 61.9375H131.562V53.9375H123.562V61.9375ZM120.875 61.9375V53.9375H112.875V61.9375H120.875ZM120.875 67.3125V75.3125H128.875V67.3125H120.875ZM120.875 59.25H112.875V67.25H120.875V59.25ZM126.25 59.25V67.25H134.25V59.25H126.25ZM126.25 56.5625V48.5625H118.25V56.5625H126.25ZM128.938 56.5625V64.5625H136.938V56.5625H128.938ZM128.938 51.1875H136.938V43.1875H128.938V51.1875ZM120.875 51.1875V43.1875H112.875V51.1875H120.875ZM123.5 67.3125V48.5H107.5V67.3125H123.5ZM115.5 56.5H131.625V40.5H115.5V56.5ZM123.625 48.5V51.1875H139.625V48.5H123.625ZM131.625 59.1875H134.312V43.1875H131.625V59.1875ZM126.312 51.1875V59.25H142.312V51.1875H126.312ZM134.312 51.25H128.938V67.25H134.312V51.25ZM120.938 59.25V61.9375H136.938V59.25H120.938ZM128.938 69.9375H131.625V53.9375H128.938V69.9375ZM123.625 61.9375V64.625H139.625V61.9375H123.625ZM131.625 72.625H134.312V56.625H131.625V72.625ZM126.312 64.625V67.3125H142.312V64.625H126.312ZM134.312 59.3125H126.25V75.3125H134.312V59.3125ZM134.25 67.3125V64.625H118.25V67.3125H134.25ZM126.25 56.625H123.562V72.625H126.25V56.625ZM131.562 64.625V61.9375H115.562V64.625H131.562ZM123.562 53.9375H120.875V69.9375H123.562V53.9375ZM112.875 61.9375V67.3125H128.875V61.9375H112.875ZM120.875 59.3125H115.5V75.3125H120.875V59.3125ZM120.875 67.25H126.25V51.25H120.875V67.25ZM134.25 59.25V56.5625H118.25V59.25H134.25ZM126.25 64.5625H128.938V48.5625H126.25V64.5625ZM136.938 56.5625V51.1875H120.938V56.5625H136.938ZM128.938 43.1875H120.875V59.1875H128.938V43.1875ZM112.875 51.1875V59.25H128.875V51.1875H112.875ZM137 67.3125H129V75.3125H137V67.3125ZM137 53.875V45.875H129V53.875H137ZM139.688 53.875V61.875H147.688V53.875H139.688ZM139.688 51.1875V43.1875H131.688V51.1875H139.688ZM142.375 51.1875V59.1875H150.375V51.1875H142.375ZM142.375 48.5V40.5H134.375V48.5H142.375ZM150.438 48.5H158.438V40.5H150.438V48.5ZM150.438 51.1875H142.438V59.1875H150.438V51.1875ZM153.125 51.1875H161.125V43.1875H153.125V51.1875ZM153.125 53.875H145.125V61.875H153.125V53.875ZM155.812 53.875H163.812V45.875H155.812V53.875ZM155.812 67.3125V75.3125H163.812V67.3125H155.812ZM150.438 67.3125H142.438V75.3125H150.438V67.3125ZM150.438 61.9375H158.438V53.9375H150.438V61.9375ZM142.375 61.9375V53.9375H134.375V61.9375H142.375ZM142.375 67.3125V75.3125H150.375V67.3125H142.375ZM142.375 59.25H134.375V67.25H142.375V59.25ZM150.438 59.25V67.25H158.438V59.25H150.438ZM150.438 53.875H158.438V45.875H150.438V53.875ZM147.75 53.875H139.75V61.875H147.75V53.875ZM147.75 51.1875H155.75V43.1875H147.75V51.1875ZM145.062 51.1875V43.1875H137.062V51.1875H145.062ZM145.062 53.875V61.875H153.062V53.875H145.062ZM142.375 53.875V45.875H134.375V53.875H142.375ZM145 67.3125V53.875H129V67.3125H145ZM137 61.875H139.688V45.875H137V61.875ZM147.688 53.875V51.1875H131.688V53.875H147.688ZM139.688 59.1875H142.375V43.1875H139.688V59.1875ZM150.375 51.1875V48.5H134.375V51.1875H150.375ZM142.375 56.5H150.438V40.5H142.375V56.5ZM142.438 48.5V51.1875H158.438V48.5H142.438ZM150.438 59.1875H153.125V43.1875H150.438V59.1875ZM145.125 51.1875V53.875H161.125V51.1875H145.125ZM153.125 61.875H155.812V45.875H153.125V61.875ZM147.812 53.875V67.3125H163.812V53.875H147.812ZM155.812 59.3125H150.438V75.3125H155.812V59.3125ZM158.438 67.3125V61.9375H142.438V67.3125H158.438ZM150.438 53.9375H142.375V69.9375H150.438V53.9375ZM134.375 61.9375V67.3125H150.375V61.9375H134.375ZM142.375 59.3125H137V75.3125H142.375V59.3125ZM142.375 67.25H150.438V51.25H142.375V67.25ZM158.438 59.25V53.875H142.438V59.25H158.438ZM150.438 45.875H147.75V61.875H150.438V45.875ZM155.75 53.875V51.1875H139.75V53.875H155.75ZM147.75 43.1875H145.062V59.1875H147.75V43.1875ZM137.062 51.1875V53.875H153.062V51.1875H137.062ZM145.062 45.875H142.375V61.875H145.062V45.875ZM134.375 53.875V59.25H150.375V53.875H134.375ZM163.875 67.3125H155.875V75.3125H163.875V67.3125ZM163.875 64.625H171.875V56.625H163.875V64.625ZM161.188 64.625H153.188V72.625H161.188V64.625ZM161.188 61.9375H169.188V53.9375H161.188V61.9375ZM158.5 61.9375H150.5V69.9375H158.5V61.9375ZM158.5 53.875V45.875H150.5V53.875H158.5ZM161.188 53.875V61.875H169.188V53.875H161.188ZM161.188 51.1875V43.1875H153.188V51.1875H161.188ZM163.875 51.1875V59.1875H171.875V51.1875H163.875ZM163.875 48.5V40.5H155.875V48.5H163.875ZM174.625 48.5H182.625V40.5H174.625V48.5ZM174.625 51.1875H166.625V59.1875H174.625V51.1875ZM177.312 51.1875H185.312V43.1875H177.312V51.1875ZM177.312 53.875V61.875H185.312V53.875H177.312ZM171.938 53.875H163.938V61.875H171.938V53.875ZM171.938 51.1875H179.938V43.1875H171.938V51.1875ZM166.562 51.1875V43.1875H158.562V51.1875H166.562ZM166.562 53.875V61.875H174.562V53.875H166.562ZM163.875 53.875V45.875H155.875V53.875H163.875ZM163.875 61.9375H155.875V69.9375H163.875V61.9375ZM166.562 61.9375H174.562V53.9375H166.562V61.9375ZM166.562 64.625H158.562V72.625H166.562V64.625ZM171.938 64.625V72.625H179.938V64.625H171.938ZM171.938 61.9375V53.9375H163.938V61.9375H171.938ZM177.312 61.9375H185.312V53.9375H177.312V61.9375ZM177.312 64.625V72.625H185.312V64.625H177.312ZM174.625 64.625V56.625H166.625V64.625H174.625ZM174.625 67.3125V75.3125H182.625V67.3125H174.625ZM171.875 67.3125V64.625H155.875V67.3125H171.875ZM163.875 56.625H161.188V72.625H163.875V56.625ZM169.188 64.625V61.9375H153.188V64.625H169.188ZM161.188 53.9375H158.5V69.9375H161.188V53.9375ZM166.5 61.9375V53.875H150.5V61.9375H166.5ZM158.5 61.875H161.188V45.875H158.5V61.875ZM169.188 53.875V51.1875H153.188V53.875H169.188ZM161.188 59.1875H163.875V43.1875H161.188V59.1875ZM171.875 51.1875V48.5H155.875V51.1875H171.875ZM163.875 56.5H174.625V40.5H163.875V56.5ZM166.625 48.5V51.1875H182.625V48.5H166.625ZM174.625 59.1875H177.312V43.1875H174.625V59.1875ZM169.312 51.1875V53.875H185.312V51.1875H169.312ZM177.312 45.875H171.938V61.875H177.312V45.875ZM179.938 53.875V51.1875H163.938V53.875H179.938ZM171.938 43.1875H166.562V59.1875H171.938V43.1875ZM158.562 51.1875V53.875H174.562V51.1875H158.562ZM166.562 45.875H163.875V61.875H166.562V45.875ZM155.875 53.875V61.9375H171.875V53.875H155.875ZM163.875 69.9375H166.562V53.9375H163.875V69.9375ZM158.562 61.9375V64.625H174.562V61.9375H158.562ZM166.562 72.625H171.938V56.625H166.562V72.625ZM179.938 64.625V61.9375H163.938V64.625H179.938ZM171.938 69.9375H177.312V53.9375H171.938V69.9375ZM169.312 61.9375V64.625H185.312V61.9375H169.312ZM177.312 56.625H174.625V72.625H177.312V56.625ZM166.625 64.625V67.3125H182.625V64.625H166.625ZM174.625 59.3125H163.875V75.3125H174.625V59.3125ZM180 67.3125H172V75.3125H180V67.3125ZM180 48.5V40.5H172V48.5H180ZM185.375 48.5H193.375V40.5H185.375V48.5ZM185.375 56.5625H177.375V64.5625H185.375V56.5625ZM188.062 56.5625V64.5625H196.062V56.5625H188.062ZM188.062 53.875V45.875H180.062V53.875H188.062ZM190.75 53.875V61.875H198.75V53.875H190.75ZM190.75 51.1875V43.1875H182.75V51.1875H190.75ZM193.438 51.1875V59.1875H201.438V51.1875H193.438ZM193.438 48.5V40.5H185.438V48.5H193.438ZM198.812 48.5H206.812V40.5H198.812V48.5ZM198.812 51.1875V59.1875H206.812V51.1875H198.812ZM196.125 51.1875V43.1875H188.125V51.1875H196.125ZM196.125 53.875V61.875H204.125V53.875H196.125ZM193.438 53.875V45.875H185.438V53.875H193.438ZM193.438 56.5625V64.5625H201.438V56.5625H193.438ZM190.75 56.5625V48.5625H182.75V56.5625H190.75ZM190.75 59.25H182.75V67.25H190.75V59.25ZM193.438 59.25H201.438V51.25H193.438V59.25ZM193.438 61.9375H185.438V69.9375H193.438V61.9375ZM196.125 61.9375H204.125V53.9375H196.125V61.9375ZM196.125 64.625H188.125V72.625H196.125V64.625ZM198.812 64.625H206.812V56.625H198.812V64.625ZM198.812 67.3125V75.3125H206.812V67.3125H198.812ZM190.75 67.3125H182.75V75.3125H190.75V67.3125ZM190.75 64.625H198.75V56.625H190.75V64.625ZM188.062 64.625H180.062V72.625H188.062V64.625ZM188.062 61.9375H196.062V53.9375H188.062V61.9375ZM185.375 61.9375V53.9375H177.375V61.9375H185.375ZM185.375 67.3125V75.3125H193.375V67.3125H185.375ZM188 67.3125V48.5H172V67.3125H188ZM180 56.5H185.375V40.5H180V56.5ZM177.375 48.5V56.5625H193.375V48.5H177.375ZM185.375 64.5625H188.062V48.5625H185.375V64.5625ZM196.062 56.5625V53.875H180.062V56.5625H196.062ZM188.062 61.875H190.75V45.875H188.062V61.875ZM198.75 53.875V51.1875H182.75V53.875H198.75ZM190.75 59.1875H193.438V43.1875H190.75V59.1875ZM201.438 51.1875V48.5H185.438V51.1875H201.438ZM193.438 56.5H198.812V40.5H193.438V56.5ZM190.812 48.5V51.1875H206.812V48.5H190.812ZM198.812 43.1875H196.125V59.1875H198.812V43.1875ZM188.125 51.1875V53.875H204.125V51.1875H188.125ZM196.125 45.875H193.438V61.875H196.125V45.875ZM185.438 53.875V56.5625H201.438V53.875H185.438ZM193.438 48.5625H190.75V64.5625H193.438V48.5625ZM182.75 56.5625V59.25H198.75V56.5625H182.75ZM190.75 67.25H193.438V51.25H190.75V67.25ZM185.438 59.25V61.9375H201.438V59.25H185.438ZM193.438 69.9375H196.125V53.9375H193.438V69.9375ZM188.125 61.9375V64.625H204.125V61.9375H188.125ZM196.125 72.625H198.812V56.625H196.125V72.625ZM190.812 64.625V67.3125H206.812V64.625H190.812ZM198.812 59.3125H190.75V75.3125H198.812V59.3125ZM198.75 67.3125V64.625H182.75V67.3125H198.75ZM190.75 56.625H188.062V72.625H190.75V56.625ZM196.062 64.625V61.9375H180.062V64.625H196.062ZM188.062 53.9375H185.375V69.9375H188.062V53.9375ZM177.375 61.9375V67.3125H193.375V61.9375H177.375ZM185.375 59.3125H180V75.3125H185.375V59.3125ZM201.5 67.3125H193.5V75.3125H201.5V67.3125ZM201.5 48.5V40.5H193.5V48.5H201.5ZM220.312 48.5H228.312V40.5H220.312V48.5ZM220.312 51.1875V59.1875H228.312V51.1875H220.312ZM206.875 51.1875V43.1875H198.875V51.1875H206.875ZM206.875 56.5625H198.875V64.5625H206.875V56.5625ZM217.625 56.5625H225.625V48.5625H217.625V56.5625ZM217.625 59.25V67.25H225.625V59.25H217.625ZM206.875 59.25V51.25H198.875V59.25H206.875ZM206.875 64.625H198.875V72.625H206.875V64.625ZM220.312 64.625H228.312V56.625H220.312V64.625ZM220.312 67.3125V75.3125H228.312V67.3125H220.312ZM209.5 67.3125V48.5H193.5V67.3125H209.5ZM201.5 56.5H220.312V40.5H201.5V56.5ZM212.312 48.5V51.1875H228.312V48.5H212.312ZM220.312 43.1875H206.875V59.1875H220.312V43.1875ZM198.875 51.1875V56.5625H214.875V51.1875H198.875ZM206.875 64.5625H217.625V48.5625H206.875V64.5625ZM209.625 56.5625V59.25H225.625V56.5625H209.625ZM217.625 51.25H206.875V67.25H217.625V51.25ZM198.875 59.25V64.625H214.875V59.25H198.875ZM206.875 72.625H220.312V56.625H206.875V72.625ZM212.312 64.625V67.3125H228.312V64.625H212.312ZM220.312 59.3125H201.5V75.3125H220.312V59.3125ZM223 67.3125H215V75.3125H223V67.3125ZM223 48.5V40.5H215V48.5H223ZM239.125 48.5H247.125V40.5H239.125V48.5ZM239.125 51.1875H231.125V59.1875H239.125V51.1875ZM241.812 51.1875H249.812V43.1875H241.812V51.1875ZM241.812 59.25V67.25H249.812V59.25H241.812ZM236.438 59.25V51.25H228.438V59.25H236.438ZM236.438 61.9375H228.438V69.9375H236.438V61.9375ZM239.125 61.9375H247.125V53.9375H239.125V61.9375ZM239.125 64.625H231.125V72.625H239.125V64.625ZM241.812 64.625H249.812V56.625H241.812V64.625ZM241.812 67.3125V75.3125H249.812V67.3125H241.812ZM233.75 67.3125H225.75V75.3125H233.75V67.3125ZM233.75 64.625H241.75V56.625H233.75V64.625ZM231.062 64.625H223.062V72.625H231.062V64.625ZM231.062 61.9375H239.062V53.9375H231.062V61.9375ZM228.375 61.9375V53.9375H220.375V61.9375H228.375ZM228.375 67.3125V75.3125H236.375V67.3125H228.375ZM228.375 59.25H220.375V67.25H228.375V59.25ZM233.75 59.25V67.25H241.75V59.25H233.75ZM233.75 56.5625V48.5625H225.75V56.5625H233.75ZM236.438 56.5625V64.5625H244.438V56.5625H236.438ZM236.438 51.1875H244.438V43.1875H236.438V51.1875ZM228.375 51.1875V43.1875H220.375V51.1875H228.375ZM231 67.3125V48.5H215V67.3125H231ZM223 56.5H239.125V40.5H223V56.5ZM231.125 48.5V51.1875H247.125V48.5H231.125ZM239.125 59.1875H241.812V43.1875H239.125V59.1875ZM233.812 51.1875V59.25H249.812V51.1875H233.812ZM241.812 51.25H236.438V67.25H241.812V51.25ZM228.438 59.25V61.9375H244.438V59.25H228.438ZM236.438 69.9375H239.125V53.9375H236.438V69.9375ZM231.125 61.9375V64.625H247.125V61.9375H231.125ZM239.125 72.625H241.812V56.625H239.125V72.625ZM233.812 64.625V67.3125H249.812V64.625H233.812ZM241.812 59.3125H233.75V75.3125H241.812V59.3125ZM241.75 67.3125V64.625H225.75V67.3125H241.75ZM233.75 56.625H231.062V72.625H233.75V56.625ZM239.062 64.625V61.9375H223.062V64.625H239.062ZM231.062 53.9375H228.375V69.9375H231.062V53.9375ZM220.375 61.9375V67.3125H236.375V61.9375H220.375ZM228.375 59.3125H223V75.3125H228.375V59.3125ZM228.375 67.25H233.75V51.25H228.375V67.25ZM241.75 59.25V56.5625H225.75V59.25H241.75ZM233.75 64.5625H236.438V48.5625H233.75V64.5625ZM244.438 56.5625V51.1875H228.438V56.5625H244.438ZM236.438 43.1875H228.375V59.1875H236.438V43.1875ZM220.375 51.1875V59.25H236.375V51.1875H220.375Z" fill="white" mask="url(#path-1-outside-1_2209_110)"/>
</svg>
