<svg width="1920" height="1080" viewBox="0 0 1920 1080" fill="none" xmlns="http://www.w3.org/2000/svg">
<g clip-path="url(#clip0_2235_113)">
<rect width="1920" height="1080" fill="#FFFFEA"/>
<rect width="1920" height="1080" fill="url(#paint0_linear_2235_113)"/>
<g clip-path="url(#clip1_2235_113)">
<path fill-rule="evenodd" clip-rule="evenodd" d="M918.673 912.328C902.047 914.619 884.957 938.223 875.103 972.115L870.409 987.861C868.143 984.429 851.861 962.366 845.26 952.282C833.78 934.47 808.898 957.361 795.933 998.055L787.527 1024.31C785.654 1021.3 775.564 1006.94 767.996 991.444C757.164 969.489 730.302 981.985 713.35 1016.89C707.221 1029.62 701.621 1041.47 700.761 1043.45C699.417 1045.86 693.89 1042.28 683.982 1032.48C666.084 1015.45 659.394 1012.54 642.636 1035.05C625.108 1058.66 601.639 1131.09 609.1 1139.2C620.096 1151.15 649.992 1128.38 656.798 1102.81L661.763 1084.45C663.439 1087.24 672.85 1101.83 674.618 1110.06C679.258 1130.61 711.947 1110.39 727.843 1077.25C742.349 1046.96 741.081 1046.55 754.873 1073.66C763.226 1090.01 795.324 1123.93 820.572 1036.47C822.986 1027.95 825.852 1021.36 826.638 1022.22C827.62 1023.29 832.999 1032.53 839.117 1043.06C858.12 1076.8 878.609 1064.65 897.974 1008.61C902.306 996.351 906.017 985.84 906.741 985.174C907.466 984.507 914.882 993.053 922.948 1003.76C944.336 1031.37 968.013 1028.5 974.728 997.501C978.198 980.91 931.75 910.543 918.673 912.328Z" fill="#FDBA00"/>
</g>
<g clip-path="url(#clip2_2235_113)">
<path fill-rule="evenodd" clip-rule="evenodd" d="M620.582 440.771C611.147 428.508 584.436 425.618 552.796 433.225L538.045 436.667C539.757 433.284 549.975 410.16 555.03 400.265C564.041 382.931 534.338 373.477 495.831 381.704L470.969 386.978C472.518 384.104 479.403 369.46 488.351 356.314C500.975 337.605 478.688 321.813 442.993 324.201C429.999 325.115 417.95 326.051 415.977 326.264C413.426 326.294 413.768 320.23 417.084 307.817C422.535 285.702 421.805 279.016 396.121 275.892C369.203 272.656 300.49 286.982 297.409 296.663C292.868 310.931 324.77 324.452 348.353 318.209L365.321 313.789C363.853 316.408 356.473 330.614 350.697 335.79C336.36 348.904 367.496 365.829 401.298 363.4C432.181 361.164 431.929 359.962 416.529 383.4C407.257 397.565 394.777 438.77 476.34 418.994C484.27 417.029 490.85 416.314 490.525 417.334C490.12 418.607 485.181 427.14 479.549 436.851C461.221 467.494 480.317 478.342 534.035 468.223C545.831 466.085 555.943 464.25 556.808 464.525C557.673 464.801 554.222 474.645 549.339 485.998C537.012 515.745 550.134 533.39 578.025 524.59C592.894 519.783 627.99 450.424 620.582 440.771Z" fill="#FDBA00"/>
</g>
<g clip-path="url(#clip3_2235_113)">
<path fill-rule="evenodd" clip-rule="evenodd" d="M1795.13 813.37C1786.23 814.281 1777.62 816.991 1769.81 821.332C1761.67 825.007 1754.35 830.302 1748.31 836.896C1742.03 843.755 1737.27 851.866 1734.35 860.696C1731.42 869.525 1730.4 878.873 1731.35 888.126C1732.28 897.197 1735.08 905.975 1739.57 913.906C1749.15 932.664 1766.45 948.385 1784.79 961.165C1797.58 970.081 1811.7 978.128 1825.78 985.223C1821.7 1002.5 1817.12 1018.14 1813.38 1029.94C1811.24 1036.69 1809.39 1042.15 1808.08 1045.9L1806.05 1051.56C1802.46 1061.12 1807.29 1071.79 1816.86 1075.38C1826.42 1078.98 1837.09 1074.14 1840.68 1064.57L1840.69 1064.56C1843.57 1056.82 1846.16 1048.98 1848.65 1041.12C1852.07 1030.34 1856.18 1016.44 1860.05 1000.91C1874.81 1007.07 1888.42 1012.07 1899.11 1015.77C1912.9 1020.53 1939.08 1033.3 1945.58 1010.7C1948.4 1000.88 1942.72 990.632 1932.91 987.807L1932.85 987.792L1932.83 987.785C1925.56 985.607 1918.35 983.268 1911.19 980.793C1899.49 976.751 1884.2 971.092 1867.91 964.052C1870.62 948.523 1872.59 932.392 1873.07 916.806C1873.76 894.466 1871.47 871.198 1862.14 852.315C1858.46 843.978 1853.08 836.492 1846.36 830.334C1839.5 824.052 1831.39 819.292 1822.56 816.369C1813.73 813.446 1804.38 812.424 1795.13 813.37ZM1833.13 947.335C1834.7 936.568 1835.77 925.869 1836.09 915.666C1836.71 895.494 1834.3 879.312 1828.84 868.456C1819.44 849.748 1801.49 846.813 1785.46 854.867C1769.43 862.922 1764.7 881.508 1772.39 896.822C1777.85 907.678 1789.39 919.271 1805.95 930.811C1814.32 936.647 1823.54 942.175 1833.13 947.335Z" fill="#FF8548"/>
</g>
<g clip-path="url(#clip4_2235_113)">
<path fill-rule="evenodd" clip-rule="evenodd" d="M1541.65 58.2295C1542.1 66.1918 1543.68 74.3473 1546.3 82.2005C1548.49 90.1825 1551.71 97.8383 1555.78 104.701C1560 111.838 1565.03 117.956 1570.55 122.652C1576.06 127.349 1581.93 130.517 1587.77 131.948C1593.49 133.352 1599.05 133.055 1604.11 131.079C1616.05 127.316 1626.2 116.091 1634.51 103.252C1640.3 94.2951 1645.57 83.9715 1650.24 73.4533C1661.05 81.2101 1670.83 89.0068 1678.2 95.1375C1682.42 98.6468 1685.83 101.592 1688.16 103.646L1691.7 106.791C1697.66 112.248 1704.44 110.638 1706.84 103.194C1709.25 95.749 1706.36 85.2879 1700.39 79.8285L1700.38 79.8185C1695.55 75.4307 1690.66 71.2608 1685.75 67.1748C1679.01 61.5735 1670.33 54.6101 1660.61 47.4614C1664.71 36.1168 1668.05 25.4977 1670.53 17.0964C1673.73 6.25574 1682.15 -13.4077 1668.02 -24.571C1661.88 -29.42 1655.35 -26.9796 1653.43 -19.1265L1653.42 -19.084L1653.41 -19.0647C1651.94 -13.2751 1650.36 -7.57124 1648.7 -1.93813C1645.98 7.2573 1642.2 19.1741 1637.53 31.6345C1627.8 25.4927 1617.68 19.8464 1607.88 15.6292C1593.83 9.58397 1579.16 5.90096 1567.14 9.41872C1561.84 10.5903 1557.05 13.4399 1553.07 17.791C1549.02 22.2272 1545.91 28.1235 1543.94 35.0939C1541.97 42.0636 1541.19 49.9483 1541.65 58.2295ZM1626.51 57.8255C1619.75 53.8281 1613.04 50.2898 1606.62 47.5292C1593.94 42.0707 1583.72 40.2245 1576.81 42.3246C1564.9 45.9435 1562.79 60.8487 1567.63 76.7584C1572.46 92.6682 1584.09 101.319 1593.84 98.357C1600.75 96.2569 1608.21 89.0379 1615.71 77.4445C1619.51 71.5813 1623.12 64.9041 1626.51 57.8255Z" fill="#FF8548"/>
</g>
<g clip-path="url(#clip5_2235_113)">
<path fill-rule="evenodd" clip-rule="evenodd" d="M2023.28 877.965C2042.39 853.451 2055.63 612.625 1970.08 533.357C1937.01 502.657 1852.5 515.024 1755.14 564.514C1739.09 572.678 1728.11 578.433 1711.75 583.506C1710.72 583.875 1716.36 576.74 1724.47 567.629C1743.65 546.055 1750.64 532.135 1747.81 520.95C1746.38 515.567 1744.31 516.445 1738.27 524.958C1720.96 549.42 1699.3 568.635 1665.29 589.344C1651.94 597.5 1641.24 618.23 1678.43 620.048C1709.89 621.586 1728.73 625.584 1757.33 637.189C1775.88 644.668 1786.26 635.248 1775.24 621.007C1771.43 616.066 1751.9 607.701 1730.79 601.915L1720 599.01C1759.61 578.995 1762.05 577.576 1794.58 564.066C1871.94 532.054 1929.67 528.305 1957.72 553.586C2028.58 617.595 2022.49 781.309 2018.54 878.292C2018.41 880.943 2021.12 880.795 2023.28 877.965Z" fill="#FF8548"/>
</g>
<g clip-path="url(#clip6_2235_113)">
<path fill-rule="evenodd" clip-rule="evenodd" d="M457.767 874.642C467.213 873.388 476.786 870.763 485.904 866.928C495.214 863.586 504.041 859.047 511.848 853.582C519.967 847.898 526.797 841.342 531.889 834.346C536.982 827.349 540.222 820.069 541.396 812.985C542.547 806.04 541.686 799.437 538.872 793.594C533.299 779.707 519.001 768.643 502.947 759.913C491.747 753.823 478.967 748.485 466.01 743.88C474.266 730.293 482.665 717.937 489.298 708.596C493.094 703.251 496.292 698.919 498.526 695.945L501.952 691.452C507.91 683.847 505.374 675.915 496.286 673.732C487.197 671.549 474.996 675.944 469.036 683.55L469.025 683.564C464.237 689.712 459.715 695.925 455.294 702.15C449.234 710.684 441.729 721.668 434.097 733.893C420.208 730.049 407.251 727.033 397.016 724.845C383.808 722.021 359.613 713.783 347.601 731.633C342.383 739.387 345.885 746.947 355.417 748.52L355.469 748.528L355.492 748.532C362.524 749.763 369.464 751.122 376.327 752.589C387.53 754.985 402.073 758.407 417.344 762.832C410.913 774.987 405.108 787.562 400.977 799.622C395.054 816.911 392.004 834.73 397.29 848.728C399.169 854.937 403 860.382 408.546 864.72C414.201 869.144 421.51 872.316 429.994 874.026C438.477 875.736 447.942 875.946 457.767 874.642ZM449.553 773.582C445.406 781.992 441.802 790.317 439.098 798.212C433.75 813.823 432.482 826.165 435.614 834.207C441.011 848.066 458.961 849.22 477.476 842.01C495.991 834.8 505.239 820.159 500.821 808.814C497.689 800.772 488.408 792.538 473.912 784.655C466.58 780.668 458.296 776.972 449.553 773.582Z" fill="#FF8548"/>
</g>
<path fill-rule="evenodd" clip-rule="evenodd" d="M2006.81 234.391C1995.98 226.871 1973.54 231.429 1949.81 245.785L1938.71 252.394C1939.23 249.204 1941.55 227.782 1943.1 218.439C1945.94 202.032 1919.37 202.032 1890.22 218.667L1871.39 229.378C1871.91 226.643 1873.71 212.97 1877.58 199.981C1883 181.522 1860.82 174.458 1832.44 185.624C1822.13 189.726 1812.58 193.6 1811.04 194.284C1808.97 194.967 1807.68 189.954 1807.17 179.015C1805.88 159.645 1803.56 154.404 1781.89 158.506C1759.19 162.836 1707.09 192.233 1707.09 200.892C1707.09 213.654 1736.49 216.388 1754.03 205.222L1766.67 197.246C1766.16 199.753 1763.83 213.198 1760.48 218.895C1752.23 233.252 1781.89 238.949 1808.72 228.238C1833.22 218.439 1832.7 217.528 1826.25 240.544C1822.39 254.445 1822.9 291.137 1884.03 253.991C1889.96 250.345 1895.12 248.064 1895.12 248.976C1895.12 250.115 1893.32 258.321 1891.25 267.664C1884.29 297.289 1902.6 301.163 1943.61 279.059C1952.64 274.273 1960.38 270.169 1961.15 270.169C1961.93 270.169 1961.67 279.056 1960.64 289.539C1958.32 316.885 1973.54 327.823 1993.91 313.467C2004.75 305.719 2015.32 240.316 2006.81 234.391Z" fill="#FAB801"/>
<g clip-path="url(#clip7_2235_113)">
<path fill-rule="evenodd" clip-rule="evenodd" d="M627.904 -301.228C597.793 -293.526 439.981 -111.131 459.152 3.90818C466.531 48.4274 540.944 90.3482 648.236 110.767C665.93 114.131 678.136 116.297 694.175 122.289C695.217 122.629 686.389 124.82 674.404 127.07C646.029 132.395 631.985 139.131 627.382 149.711C625.217 154.841 627.391 155.414 637.383 152.38C666.034 143.615 694.925 141.669 734.498 146.097C750.048 147.813 771.194 137.961 742.89 113.77C718.946 93.3065 706.491 78.6195 690.967 51.9406C680.866 34.6726 666.898 35.7788 666.9 53.7837C666.893 60.0243 677.22 78.587 690.382 96.0827L697.134 104.977C653.558 96.5764 650.764 96.2094 616.765 86.9922C535.987 64.9842 488.026 32.6274 481.309 -4.52871C464.416 -98.5144 569.395 -224.287 631.858 -298.583C633.582 -300.6 631.348 -302.142 627.904 -301.228Z" fill="#FF8548"/>
</g>
</g>
<defs>
<linearGradient id="paint0_linear_2235_113" x1="960" y1="0" x2="960" y2="1080" gradientUnits="userSpaceOnUse">
<stop stop-color="#22ABB2"/>
<stop offset="1" stop-color="#0B9999"/>
</linearGradient>
<clipPath id="clip0_2235_113">
<rect width="1920" height="1080" fill="white"/>
</clipPath>
<clipPath id="clip1_2235_113">
<rect width="393.239" height="347.425" fill="white" transform="translate(521 1049.24) rotate(-42.6132)"/>
</clipPath>
<clipPath id="clip2_2235_113">
<rect width="362.546" height="320.308" fill="white" transform="translate(329.146 185) rotate(17.6554)"/>
</clipPath>
<clipPath id="clip3_2235_113">
<rect width="259" height="259" fill="white" transform="translate(1653 877.289) rotate(-26.6791)"/>
</clipPath>
<clipPath id="clip4_2235_113">
<rect width="240.08" height="153.974" fill="white" transform="translate(1579.8 197.477) rotate(-106.903)"/>
</clipPath>
<clipPath id="clip5_2235_113">
<rect width="400.918" height="497.745" fill="white" transform="translate(2033.44 950.732) rotate(-177.201)"/>
</clipPath>
<clipPath id="clip6_2235_113">
<rect width="286.874" height="183.986" fill="white" transform="translate(620.193 816.499) rotate(158.723)"/>
</clipPath>
<clipPath id="clip7_2235_113">
<rect width="400.918" height="497.745" fill="white" transform="translate(664.39 -365) rotate(40.5197)"/>
</clipPath>
</defs>
</svg>
