<svg width="50" height="50" viewBox="0 0 50 50" fill="none" xmlns="http://www.w3.org/2000/svg">
<path fill-rule="evenodd" clip-rule="evenodd" d="M24.9999 0.98877C24.2912 0.98877 23.5973 1.19151 23.0002 1.57307C22.4106 1.94974 21.9396 2.48517 21.6411 3.11751L15.9712 14.5643C15.9601 14.5868 15.9494 14.6095 15.9392 14.6324L15.9276 14.6468L15.9105 14.6534C15.8887 14.6558 15.867 14.6586 15.8454 14.6619L3.36116 16.5114C2.67115 16.5785 2.01315 16.8374 1.46202 17.2595C0.891767 17.6964 0.460403 18.2891 0.220188 18.9661C-0.0200269 19.6431 -0.0587881 20.3752 0.108602 21.0738C0.275343 21.7696 0.639517 22.4024 1.15725 22.8961L10.2957 31.7134L10.3166 31.7331C10.3296 31.7453 10.3394 31.7606 10.3451 31.7775C10.3507 31.7945 10.352 31.8126 10.3489 31.8301L8.16924 44.5861C8.0496 45.2768 8.12535 45.9904 8.38895 46.6396C8.65292 47.2904 9.0942 47.8536 9.66252 48.2657C10.2309 48.6775 10.9035 48.9218 11.6037 48.9704C12.3026 49.0189 13.0011 48.8707 13.6201 48.5429L13.6238 48.5407L24.872 42.5961C24.9123 42.5786 24.9559 42.5693 25 42.5693C25.0441 42.5693 25.0877 42.5786 25.128 42.5961L36.376 48.5407C36.9953 48.8696 37.6967 49.0193 38.396 48.9704C39.0963 48.9218 39.7688 48.6775 40.3374 48.2657C40.9056 47.8536 41.3471 47.2904 41.611 46.6396C41.8746 45.9904 41.9506 45.2804 41.8313 44.59L41.8306 44.5861L39.6531 31.8418L39.651 31.8301C39.6478 31.8126 39.6492 31.7945 39.6549 31.7775C39.6603 31.7606 39.6703 31.7453 39.6831 31.7331L39.7042 31.7134L48.8428 22.896C49.3603 22.4023 49.7246 21.7695 49.8913 21.0738C50.0585 20.3752 50.0199 19.6431 49.7796 18.9661C49.5396 18.2891 49.1081 17.6964 48.5378 17.2595C47.9867 16.8374 47.3288 16.5785 46.6388 16.5114L34.1545 14.6619C34.1328 14.6586 34.1111 14.6558 34.0894 14.6534L34.0722 14.6468L34.0607 14.6324C34.0505 14.6095 34.0398 14.5868 34.0287 14.5643L28.3588 3.11746C28.0603 2.48514 27.5892 1.94973 26.9997 1.57307C26.4025 1.19151 25.7086 0.98877 24.9999 0.98877Z" fill="#FDBA00"/>
</svg>
